<?xml version="1.0" encoding="UTF-8" standalone="no"?>
<svg
   xmlns:dc="http://purl.org/dc/elements/1.1/"
   xmlns:cc="http://creativecommons.org/ns#"
   xmlns:rdf="http://www.w3.org/1999/02/22-rdf-syntax-ns#"
   xmlns:svg="http://www.w3.org/2000/svg"
   xmlns="http://www.w3.org/2000/svg"
   xmlns:sodipodi="http://sodipodi.sourceforge.net/DTD/sodipodi-0.dtd"
   xmlns:inkscape="http://www.inkscape.org/namespaces/inkscape"
   width="84.861023mm"
   height="58.152313mm"
   viewBox="0 0 84.861023 58.152313"
   version="1.1"
   id="svg13151"
   inkscape:version="1.0.1 (3bc2e813f5, 2020-09-07)"
   sodipodi:docname="logo.svg">
  <defs
     id="defs13145">
    <meshgradient
       inkscape:collect="always"
       id="meshgradient1339"
       gradientUnits="userSpaceOnUse"
       x="125.05106"
       y="131.32309">
      <meshrow
         id="meshrow2949">
        <meshpatch
           id="meshpatch2951">
          <stop
             path="c 0.49612,2.17968e-05  1.6891,0.0118341  2.72853,0.0118341"
             style="stop-color:#ffffff;stop-opacity:1"
             id="stop2953" />
          <stop
             path="c 0,0.417352  -0.11812,0.846516  -0.24803,1.25204"
             style="stop-color:#ffcf16;stop-opacity:1"
             id="stop2955" />
          <stop
             path="c -1.03945,1.77973e-05  -1.83086,1.77973e-05  -2.87029,1.77973e-05"
             style="stop-color:#ffffff;stop-opacity:1"
             id="stop2957" />
          <stop
             path="c 0,-0.417352  0.236236,-0.905575  0.389795,-1.26389"
             style="stop-color:#ffcf16;stop-opacity:1"
             id="stop2959" />
        </meshpatch>
      </meshrow>
    </meshgradient>
  </defs>
  <sodipodi:namedview
     id="base"
     pagecolor="#ffffff"
     bordercolor="#666666"
     borderopacity="1.0"
     inkscape:pageopacity="0.0"
     inkscape:pageshadow="2"
     inkscape:zoom="1.4"
     inkscape:cx="-64.992672"
     inkscape:cy="67.230975"
     inkscape:document-units="mm"
     inkscape:current-layer="layer1"
     inkscape:document-rotation="0"
     showgrid="false"
     inkscape:window-width="1920"
     inkscape:window-height="1027"
     inkscape:window-x="1912"
     inkscape:window-y="-8"
     inkscape:window-maximized="1"
     inkscape:snap-smooth-nodes="false"
     inkscape:object-paths="true"
     inkscape:snap-nodes="false"
     fit-margin-top="0"
     fit-margin-left="0"
     fit-margin-right="0"
     fit-margin-bottom="0" />
  <metadata
     id="metadata13148">
    <rdf:RDF>
      <cc:Work
         rdf:about="">
        <dc:format>image/svg+xml</dc:format>
        <dc:type
           rdf:resource="http://purl.org/dc/dcmitype/StillImage" />
        <dc:title></dc:title>
      </cc:Work>
    </rdf:RDF>
  </metadata>
  <g
     inkscape:label="Слой 1"
     inkscape:groupmode="layer"
     id="layer1"
     transform="translate(-51.94757,-93.628696)">
    <path
       style="fill:none;stroke:#000000;stroke-width:0;stroke-linecap:round;stroke-linejoin:round;stroke-miterlimit:4;stroke-dasharray:none;stroke-dashoffset:0;stroke-opacity:1"
       d="m 68.253956,123.84602 0.175394,1.31964 c 0,0 0.09188,0.0501 -0.609708,0.11694 -0.701581,0.0668 -1.289975,0.45126 -1.870887,0.80181 -0.711789,0.42953 -1.31724,1.01689 -1.937705,1.57021 -0.593608,0.52937 -1.228927,1.03242 -1.703843,1.67043 -0.428314,0.5754 -0.733129,1.23939 -1.00226,1.9043 -0.178493,0.44098 -0.321319,0.90072 -0.400904,1.36975 -0.253698,1.49516 -0.23386,4.54359 -0.23386,4.54359 l -0.400905,0.23386 -0.835218,-1.33635 -0.334087,0.13363 0.233863,1.5368 -0.434314,0.13364 -0.868627,-1.33635 h -0.200451 l 0.100224,1.46998 -0.400902,0.10023 -0.467722,-1.20272 -0.334087,-0.0334 -0.200454,1.26953 -0.367495,0.10022 c 0,0 -1.322933,-2.05208 -1.870885,-3.14041 -0.493861,-0.98089 -0.917359,-1.99998 -1.269531,-3.04019 -0.28065,-0.82895 -0.513624,-1.67765 -0.668174,-2.53907 -0.201554,-1.1234 -0.362452,-2.26669 -0.334087,-3.40768 0.02826,-1.13675 0.03516,-2.33705 0.501132,-3.37428 0.255926,-0.56967 0.726876,-1.03208 1.202711,-1.43657 0.848364,-0.72115 1.887055,-1.18673 2.873147,-1.70385 0.803164,-0.42119 1.606568,-0.86556 2.472243,-1.13589 0.367004,-0.11461 0.751725,-0.21592 1.135896,-0.20045 0.528981,0.0213 1.046719,0.20066 1.536801,0.4009 0.891232,0.36414 1.732267,0.86319 2.505651,1.43657 1.474537,1.09322 4.009044,3.77518 4.009044,3.77518 z"
       id="path13370"
       sodipodi:nodetypes="ccssssssccccccccccccccsssssssssssc" />
    <path
       style="fill:none;stroke:#000000;stroke-width:0;stroke-linecap:round;stroke-linejoin:round;stroke-miterlimit:4;stroke-dasharray:none;stroke-dashoffset:0;stroke-opacity:1"
       d="m 58.350073,118.84989 c 0,0 -0.688592,0.62444 -0.968563,0.99218 -0.397604,0.52225 -0.722785,1.10236 -0.992188,1.7009 -0.258581,0.5745 -0.466399,1.17774 -0.590587,1.79539 -0.157266,0.78216 -0.262145,1.59152 -0.188989,2.38597 0.08898,0.96627 0.465627,1.88529 0.755952,2.8112 0.320451,1.02199 0.65941,2.04168 1.086683,3.02381 0.466448,1.07218 1.017996,2.10789 1.606399,3.1183 0.494007,0.84831 1.611403,2.46505 1.611403,2.46505"
       id="path13426"
       sodipodi:nodetypes="csssssssc" />
    <path
       style="fill:none;stroke:#000000;stroke-width:0;stroke-linecap:round;stroke-linejoin:round;stroke-miterlimit:4;stroke-dasharray:none;stroke-dashoffset:0;stroke-opacity:1"
       d="m 59.333836,137.71063 0.339153,-1.11949"
       id="path13428" />
    <path
       style="fill:none;stroke:#000000;stroke-width:0;stroke-linecap:round;stroke-linejoin:round;stroke-miterlimit:4;stroke-dasharray:none;stroke-dashoffset:0;stroke-opacity:1"
       d="m 57.930668,137.9779 0.419405,-0.96153"
       id="path13430" />
    <path
       style="fill:none;stroke:#000000;stroke-width:0;stroke-linecap:round;stroke-linejoin:round;stroke-miterlimit:4;stroke-dasharray:none;stroke-dashoffset:0;stroke-opacity:1"
       d="m 56.527503,138.11154 0.688642,-0.69357"
       id="path13432" />
    <path
       style="fill:none;stroke:#000000;stroke-width:0;stroke-linecap:butt;stroke-linejoin:round;stroke-miterlimit:4;stroke-dasharray:none;stroke-dashoffset:0;stroke-opacity:1"
       d="m 71.610863,122.83141 9.411291,-20.31027 c 0,0 -2.089934,-1.00219 -2.779,-1.89416 -0.16027,-0.20746 -0.27727,-0.46294 -0.30919,-0.723148 -0.03011,-0.245425 -0.01643,-0.524875 0.118118,-0.73233 0.148553,-0.229054 0.417521,-0.394588 0.685083,-0.448847 0.172566,-0.035 0.361416,0.01739 0.519716,0.09449 0.08525,0.04152 0.117821,0.186529 0.212611,0.18899 0.10081,0.0026 0.144352,-0.147437 0.236236,-0.18899 0.123859,-0.05601 0.266241,-0.08337 0.401601,-0.07087 0.200985,0.01855 0.573655,0.41434 0.566965,0.212611 -0.03286,-0.990842 -0.04725,-2.456847 -0.04725,-2.456847 l 0.02154,-1.003303 c 0,0 0.285776,-0.395276 0.367496,-0.551243 0.103368,-0.197285 0.09755,-0.46795 0,-0.668173 -0.142459,-0.292388 -0.458936,-0.50127 -0.7684,-0.601356 -0.275695,-0.08917 -0.589581,-0.04465 -0.868624,0.03341 -0.331247,0.09266 -0.616617,0.309174 -0.902036,0.501129 -1.268548,0.853147 -3.57473,2.873147 -3.57473,2.873147 l -0.200451,1.00226 0.200451,1.169305 0.634764,2.806335 -0.200451,2.20497 -4.359833,12.17747"
       id="path14057"
       sodipodi:nodetypes="ccsssssssssccssssscccccc" />
    <path
       style="fill:none;stroke:#000000;stroke-width:0;stroke-linecap:butt;stroke-linejoin:round;stroke-miterlimit:4;stroke-dasharray:none;stroke-dashoffset:0;stroke-opacity:1"
       d="m 100.14256,114.79226 -19.093077,-10.95805 0.935443,-1.50339 19.544084,11.69304 m -0.0167,-0.0334 -0.71828,0.40091"
       id="path14059"
       sodipodi:nodetypes="cccccc" />
    <path
       style="fill:none;stroke:#000000;stroke-width:0;stroke-linecap:butt;stroke-linejoin:round;stroke-miterlimit:4;stroke-dasharray:none;stroke-dashoffset:0;stroke-opacity:1"
       d="m 105.3376,111.65184 -8.819893,-6.24742 -3.441096,0.0334 -12.402317,-6.478944"
       id="path14061" />
    <path
       style="fill:none;stroke:#000000;stroke-width:0;stroke-linecap:butt;stroke-linejoin:round;stroke-miterlimit:4;stroke-dasharray:none;stroke-dashoffset:0;stroke-opacity:1"
       d="m 79.469492,99.006135 c 0,0 -0.443416,0.336118 -0.524756,0.585171 -0.06949,0.212775 -0.01977,0.461764 0.06682,0.668174 0.100939,0.24062 0.302612,0.43202 0.501129,0.60136 0.729419,0.62221 2.472243,1.46998 2.472243,1.46998"
       id="path14063"
       sodipodi:nodetypes="csssc" />
    <path
       style="fill:none;stroke:#000000;stroke-width:0;stroke-linecap:butt;stroke-linejoin:round;stroke-miterlimit:4;stroke-dasharray:none;stroke-dashoffset:0;stroke-opacity:1"
       d="m 101.52901,114.02386 3.80859,-2.37202 0.65147,0.46772 0.58465,0.735 1.03567,4.49346 -3.2289,1.1357 -0.67991,0.21736 -0.63477,2.3386 -0.46772,2.23839 -0.46772,2.77292 -0.23386,2.50565 0.10022,4.14268 0.48206,2.09644 7.98475,-0.66146 -0.28348,-2.88207 -0.23624,-2.88207 -0.0472,-3.59077 0.28348,-3.16555 0.85045,-3.82701 0.42522,-1.37016 -7.79692,2.42639"
       id="path14065" />
    <path
       style="fill:none;stroke:#000000;stroke-width:0;stroke-linecap:butt;stroke-linejoin:round;stroke-miterlimit:4;stroke-dasharray:none;stroke-dashoffset:0;stroke-opacity:1"
       d="m 120.3047,118.93494 -8.2702,-2.60096 -0.81501,2.96475 -0.45298,2.15857 -0.26727,3.39098 -0.10022,3.52461 0.58465,5.7463 10.72466,1.33803 z"
       id="path14067" />
    <path
       style="fill:none;stroke:#000000;stroke-width:0;stroke-linecap:butt;stroke-linejoin:round;stroke-miterlimit:4;stroke-dasharray:none;stroke-dashoffset:0;stroke-opacity:1"
       d="m 102.97489,133.89806 6.61458,-0.61421 -0.49609,-4.89006 -0.0472,-3.56715 0.4016,-3.33092 0.56696,-2.14974 0.56697,-2.05525 -6.47285,1.91351 -0.73232,2.92931 -0.51972,2.88207 -0.25986,2.38598 -0.0472,3.09468 0.11811,2.57496 z"
       id="path14069" />
    <path
       style="fill:none;stroke:#000000;stroke-width:0;stroke-linecap:butt;stroke-linejoin:round;stroke-miterlimit:4;stroke-dasharray:none;stroke-dashoffset:0;stroke-opacity:1"
       d="m 117.0545,118.94438 -3.54353,-0.96856 -0.73233,0.18898 -0.68508,0.59059 -0.54334,1.08668 -0.28348,1.77177 -0.25986,3.00018 -0.0236,2.52772 0.16537,2.45685 0.18898,1.37016 5.00819,-0.30711 0.92132,-1.44103 z"
       id="path14071" />
    <path
       style="fill:none;stroke:#000000;stroke-width:0;stroke-linecap:butt;stroke-linejoin:round;stroke-miterlimit:4;stroke-dasharray:none;stroke-dashoffset:0;stroke-opacity:1"
       d="m 117.71596,119.15699 2.03162,0.70871 0.51972,7.46503 -2.22061,1.58277 z"
       id="path14073" />
    <path
       style="fill:none;stroke:#000000;stroke-width:0;stroke-linecap:butt;stroke-linejoin:round;stroke-miterlimit:4;stroke-dasharray:none;stroke-dashoffset:0;stroke-opacity:1"
       d="m 121.03507,127.53153 6.65001,1.97256 0.47247,0.37798 0.25986,0.42522 0.25986,0.8032 0.16536,1.06306 0.11812,1.37016 0.0473,2.85845 -0.0945,1.77176 -5.45703,0.0709 -7.32329,-0.0472 -5.45703,-0.18899 v -1.74814 l 9.09505,0.47248 6.11849,0.11811 0.8032,-1.98437 h 2.26786"
       id="path14075"
       sodipodi:nodetypes="ccccccccccccccccc" />
    <path
       style="fill:none;stroke:#000000;stroke-width:0;stroke-linecap:butt;stroke-linejoin:round;stroke-miterlimit:4;stroke-dasharray:none;stroke-dashoffset:0;stroke-opacity:1"
       d="m 127.68508,129.50409 0.99219,0.25986 0.35435,0.37798 0.33073,0.85044 0.21261,1.32292 0.16536,1.63002 0.0709,1.32292 0.0472,1.53553 -0.0472,1.20479 -0.23624,0.21262 -0.66141,-0.0472"
       id="path14077" />
    <path
       style="fill:none;stroke:#000000;stroke-width:0;stroke-linecap:butt;stroke-linejoin:round;stroke-miterlimit:4;stroke-dasharray:none;stroke-dashoffset:0;stroke-opacity:1"
       d="m 118.04669,128.9135 0.23623,6.09487"
       id="path14079" />
    <path
       style="fill:none;stroke:#000000;stroke-width:0;stroke-linecap:butt;stroke-linejoin:round;stroke-miterlimit:4;stroke-dasharray:none;stroke-dashoffset:0;stroke-opacity:1"
       d="m 120.81064,125.07468 c 0,0 2.45556,0.62012 3.44903,0.98038 0.42092,0.15264 0.87457,0.26901 1.22843,0.54334 0.15065,0.11679 0.38328,0.22965 0.47128,0.39874 0.0759,0.14585 0.17099,0.32607 0.19185,0.48917 0.027,0.21104 0.0304,0.59307 0.01,0.80487 -0.0196,0.20622 -0.0366,0.75799 -0.0366,0.75799"
       id="path14083"
       sodipodi:nodetypes="csssssc" />
    <path
       style="fill:none;stroke:#000000;stroke-width:0;stroke-linecap:butt;stroke-linejoin:round;stroke-miterlimit:4;stroke-dasharray:none;stroke-dashoffset:0;stroke-opacity:1"
       d="m 102.47879,134.79576 -0.25985,3.30729 8.45726,-0.0944 0.11807,-3.42548 z"
       id="path14085" />
    <path
       style="fill:none;stroke:#000000;stroke-width:0;stroke-linecap:butt;stroke-linejoin:round;stroke-miterlimit:4;stroke-dasharray:none;stroke-dashoffset:0;stroke-opacity:1"
       d="m 102.21894,138.10305 -3.028539,-0.0249 0.501132,-3.57473 2.610087,-0.0384"
       id="path14087" />
    <path
       style="fill:none;stroke:#000000;stroke-width:0;stroke-linecap:butt;stroke-linejoin:round;stroke-miterlimit:4;stroke-dasharray:none;stroke-dashoffset:0;stroke-opacity:1"
       d="m 99.357446,136.04019 -2.372016,-0.0334 -0.233863,-1.03567 -5.612659,-0.10023 -0.334086,0.43432 -0.133636,0.50113 -0.03341,1.43657 0.300678,0.4009 0.367495,0.30068 7.884449,0.13367"
       id="path14089" />
    <path
       style="fill:none;stroke:#000000;stroke-width:0;stroke-linecap:butt;stroke-linejoin:round;stroke-miterlimit:4;stroke-dasharray:none;stroke-dashoffset:0;stroke-opacity:1"
       d="m 91.138906,134.87089 0.334089,-3.67496 0.400905,-0.90204 1.069078,-0.53454 6.38106,0.0668"
       id="path14091"
       sodipodi:nodetypes="ccccc" />
    <path
       style="fill:none;stroke:#000000;stroke-width:0;stroke-linecap:butt;stroke-linejoin:round;stroke-miterlimit:4;stroke-dasharray:none;stroke-dashoffset:0;stroke-opacity:1"
       d="m 74.902287,97.085649 -0.935445,1.002265 v 3.040196 l 0.868624,1.00226 0.701582,0.60135"
       id="path14093" />
    <path
       style="fill:none;stroke:#000000;stroke-width:0;stroke-linecap:butt;stroke-linejoin:round;stroke-miterlimit:4;stroke-dasharray:none;stroke-dashoffset:0;stroke-opacity:1"
       d="m 70.475632,115.69429 4.159383,-11.52599 -0.03341,-1.36976 0.23386,-0.66817"
       id="path14095"
       sodipodi:nodetypes="cccc" />
    <path
       style="fill:none;stroke:#000000;stroke-width:0;stroke-linecap:butt;stroke-linejoin:round;stroke-miterlimit:4;stroke-dasharray:none;stroke-dashoffset:0;stroke-opacity:1"
       d="m 73.966842,101.12811 -4.57699,7.81763 c 0,0 0.44623,-0.0551 0.668173,-0.0334 0.137094,0.0134 0.282685,0.0295 0.400905,0.10023 0.142081,0.085 0.309871,0.19581 0.400903,0.33408 0.07399,0.11239 0.114831,0.23899 0.175395,0.35915 0.0516,0.10238 0.09188,0.34244 0.09188,0.34244 l 2.839739,-5.61266 0.534537,-1.04402"
       id="path14097"
       sodipodi:nodetypes="ccssssccc" />
    <path
       style="fill:none;stroke:#000000;stroke-width:0;stroke-linecap:butt;stroke-linejoin:round;stroke-miterlimit:4;stroke-dasharray:none;stroke-dashoffset:0;stroke-opacity:1"
       d="m 67.644245,112.52883 1.815975,-3.1136 0.338887,-0.47784"
       id="path14099"
       sodipodi:nodetypes="ccc" />
    <path
       style="fill:none;stroke:#000000;stroke-width:0;stroke-linecap:butt;stroke-linejoin:round;stroke-miterlimit:4;stroke-dasharray:none;stroke-dashoffset:0;stroke-opacity:1"
       d="m 71.093694,109.87284 c 0,0 -1.225462,2.38872 -1.820774,3.2824 -0.09188,-0.23701 -0.07234,-0.29645 -0.183748,-0.44267 -0.07432,-0.0975 -0.264953,-0.32352 -0.400904,-0.35079 -0.120114,-0.0241 -0.32334,-0.0849 -0.45937,-0.0584 -0.309942,0.0602 -0.534539,0.21715 -0.534539,0.21715"
       id="path14101"
       sodipodi:nodetypes="ccsssc" />
    <path
       style="fill:none;stroke:#000000;stroke-width:0;stroke-linecap:butt;stroke-linejoin:round;stroke-miterlimit:4;stroke-dasharray:none;stroke-dashoffset:0;stroke-opacity:1"
       d="m 69.406555,109.51369 c -0.208803,-0.29231 -0.0713,-0.5348 -0.0713,-0.5348"
       id="path14103"
       sodipodi:nodetypes="cc" />
    <path
       style="fill:none;stroke:#000000;stroke-width:0;stroke-linecap:butt;stroke-linejoin:round;stroke-miterlimit:4;stroke-dasharray:none;stroke-dashoffset:0;stroke-opacity:1"
       d="m 64.244912,120.02072 c 1.002261,-0.60136 1.211222,-0.67474 1.870885,-0.86863 0.312778,-0.0919 0.64958,-0.19955 0.968854,-0.13363 0.242218,0.05 0.471662,0.19827 0.634764,0.3842 0.16442,0.18743 0.160886,0.37591 0.21209,0.61992 0.01944,0.0926 0.04108,0.26706 0.08859,0.34893 0.157726,0.27179 0.538584,0.32494 0.818513,0.46772 0.337435,0.17211 0.700689,0.29087 1.035669,0.46772 0.369041,0.19483 0.740725,0.39392 1.069078,0.65147 0.262781,0.20612 0.46843,0.41626 0.627181,0.74073 0.05145,0.10515 0.04074,0.32822 0.04098,0.44528 5.24e-4,0.25637 -0.08421,0.54919 -0.217158,0.7684 -0.150061,0.24743 -0.445448,0.47151 -0.718288,0.56795 -0.271014,0.0958 -0.604576,0.0617 -0.88533,0 -0.254913,-0.056 -0.411628,-0.3314 -0.65147,-0.43431 -0.278062,-0.11931 -0.885328,-0.20045 -0.885328,-0.20045"
       id="path1317"
       sodipodi:nodetypes="cssssssssssssssc" />
    <path
       style="fill:none;stroke:#000000;stroke-width:0;stroke-linecap:butt;stroke-linejoin:round;stroke-miterlimit:4;stroke-dasharray:none;stroke-dashoffset:0;stroke-opacity:1"
       d="m 70.918298,110.22362 c 0,0 -0.05408,0.0148 0.05846,-0.0164 0.09327,-0.026 0.13608,-0.0648 0.13608,-0.0648"
       id="path1321"
       sodipodi:nodetypes="csc" />
    <path
       style="fill:none;stroke:#000000;stroke-width:0;stroke-linecap:butt;stroke-linejoin:round;stroke-miterlimit:4;stroke-dasharray:none;stroke-dashoffset:0;stroke-opacity:1"
       d="m 107.58147,117.29073 c 4.20499,-1.48828 4.25223,-1.53552 4.25223,-1.53552 l 6.68546,1.48828 1.65364,0.82682 0.14174,0.85045"
       id="path3373" />
    <path
       style="fill:none;stroke:#000000;stroke-width:0;stroke-linecap:butt;stroke-linejoin:round;stroke-miterlimit:4;stroke-dasharray:none;stroke-dashoffset:0;stroke-opacity:1"
       d="m 80.648579,96.350663 c 6.381059,4.343127 6.381059,4.343127 6.381059,4.343127 l 0.167045,0.60136 6.180606,4.10927"
       id="path3375" />
    <path
       style="fill:none;stroke:#000000;stroke-width:0;stroke-linecap:butt;stroke-linejoin:round;stroke-miterlimit:4;stroke-dasharray:none;stroke-dashoffset:0;stroke-opacity:1"
       d="m 80.860495,95.177654 c 2.279679,1.604576 4.440293,3.050671 6.770499,4.647512 l 0.801809,0.100227 7.450137,5.479027"
       id="path3377"
       sodipodi:nodetypes="cccc" />
    <text
       xml:space="preserve"
       style="font-style:normal;font-weight:normal;font-size:10.5833px;line-height:1.25;font-family:sans-serif;fill:#212834;fill-opacity:1;stroke:none;stroke-width:0;stroke-linejoin:round;stroke-miterlimit:4;stroke-dasharray:none;stroke-dashoffset:0"
       x="57.86385"
       y="148.86913"
       id="text3381"><tspan
         sodipodi:role="line"
         id="tspan3379"
         x="57.86385"
         y="148.86913"
         style="font-style:normal;font-variant:normal;font-weight:normal;font-stretch:normal;font-family:Stencil;-inkscape-font-specification:Stencil;fill:#212834;fill-opacity:1;stroke-width:0;stroke-linejoin:round;stroke-miterlimit:4;stroke-dasharray:none;stroke-dashoffset:0">EXCAVATOR35<tspan
   style="fill:#212834;fill-opacity:1;stroke-width:0;stroke-linejoin:round;stroke-miterlimit:4;stroke-dasharray:none;stroke-dashoffset:0"
   id="tspan3383" /></tspan></text>
    <path
       style="fill:none;stroke:#000000;stroke-width:0;stroke-linecap:butt;stroke-linejoin:round;stroke-miterlimit:4;stroke-dasharray:none;stroke-dashoffset:0;stroke-opacity:1"
       d="m 127.6212,139.31424 c 7.08264,1.57021 7.11605,1.60362 7.11605,1.60362 l 1.20271,1.23612 0.86863,1.5368 -0.0334,3.107 -0.46772,1.00226 -1.1359,0.735 -0.63477,0.30067 h -5.34539 l -0.0334,-6.58151 1.30294,1.33635 0.13363,-0.93544 -0.56795,-0.80181 -0.70158,-0.60136 -7.14946,-1.80407 z"
       id="path3385" />
    <path
       style="fill:none;stroke:#000000;stroke-width:0;stroke-linecap:butt;stroke-linejoin:round;stroke-miterlimit:4;stroke-dasharray:none;stroke-dashoffset:0;stroke-opacity:1"
       d="m 96.714655,140.3709 27.678245,0.0472 -3.06254,-0.8032 h -4.58297 v -0.8032 l 12.09524,-0.61421"
       id="path3387"
       sodipodi:nodetypes="cccccc" />
    <path
       style="fill:none;stroke:#000000;stroke-width:0;stroke-linecap:butt;stroke-linejoin:round;stroke-miterlimit:4;stroke-dasharray:none;stroke-dashoffset:0;stroke-opacity:1"
       d="m 96.734862,140.36661 c 1.857584,-0.73094 2.04514,-0.87124 2.04514,-0.87124 l 5.612298,-0.0603 0.01,-0.8558 -2.33861,-0.0334 v -0.46772 0"
       id="path3389"
       sodipodi:nodetypes="ccccccc" />
    <path
       style="fill:none;stroke:#000000;stroke-width:0;stroke-linecap:butt;stroke-linejoin:round;stroke-miterlimit:4;stroke-dasharray:none;stroke-dashoffset:0;stroke-opacity:1"
       d="m 65.531621,119.20424 c 1.346541,-4.74833 0.905488,-2.92536 1.389733,-4.55479 -0.352984,-0.25331 -0.232527,-0.52357 -0.227635,-0.83375 0.004,-0.25355 0.141105,-0.55848 0.330728,-0.72684 0.199254,-0.17691 0.466227,-0.32093 0.730895,-0.35173 0.429607,-0.05 0.511854,-0.0893 0.79317,0.0709 0.275259,0.15672 0.312323,0.2027 0.451466,0.48725 0.105035,0.2148 0.123467,0.28808 0.137435,0.57651 0.01448,0.29898 -0.0011,0.69778 -0.226205,0.89507 -0.181666,0.15921 -0.28304,0.28267 -0.710137,0.26129 -0.433458,1.3019 -0.921319,4.01075 -0.921319,4.01075"
       id="path3391"
       sodipodi:nodetypes="ccssssssscc" />
    <path
       style="fill:none;stroke:#000000;stroke-width:0;stroke-linecap:butt;stroke-linejoin:round;stroke-miterlimit:4;stroke-dasharray:none;stroke-dashoffset:0;stroke-opacity:1"
       d="m 69.155989,113.90693 c 2.856442,4.17608 3.056895,4.37654 3.056895,4.37654 l -0.384201,0.90203 -2.956669,-4.32642"
       id="path3395"
       sodipodi:nodetypes="cccc" />
    <path
       style="fill:none;stroke:#000000;stroke-width:0;stroke-linecap:butt;stroke-linejoin:round;stroke-miterlimit:4;stroke-dasharray:none;stroke-dashoffset:0;stroke-opacity:1"
       d="m 68.404295,115.10964 c 1.77066,2.60588 1.453276,2.48895 1.453276,2.48895 l -0.300678,0.95215 -1.637027,-2.43884"
       id="path3397"
       sodipodi:nodetypes="cccc" />
    <path
       style="fill:none;stroke:#000000;stroke-width:0;stroke-linecap:butt;stroke-linejoin:round;stroke-miterlimit:4;stroke-dasharray:none;stroke-dashoffset:0;stroke-opacity:1"
       d="m 68.855311,120.82253 c 1.286235,-4.12598 1.269529,-4.12598 1.269529,-4.12598 l 0.467723,0.71829 -1.269532,3.62484"
       id="path3399" />
    <path
       style="fill:none;stroke:#000000;stroke-width:0;stroke-linecap:butt;stroke-linejoin:round;stroke-miterlimit:4;stroke-dasharray:none;stroke-dashoffset:0;stroke-opacity:1"
       d="m 96.083394,112.58729 c 1.870885,9.35443 1.870885,9.35443 1.870885,9.35443 l -0.267269,0.86863 2.73951,11.62622"
       id="path3401" />
    <path
       style="fill:none;stroke:#000000;stroke-width:0;stroke-linecap:butt;stroke-linejoin:round;stroke-miterlimit:4;stroke-dasharray:none;stroke-dashoffset:0;stroke-opacity:1"
       d="m 96.73828,112.84951 c 1.795386,8.92969 1.795386,8.92969 1.795386,8.92969 l 0.661458,0.70871 2.291486,10.22898 -1.51191,-0.0945"
       id="path3403" />
    <path
       style="fill:none;stroke:#000000;stroke-width:0;stroke-linecap:butt;stroke-linejoin:round;stroke-miterlimit:4;stroke-dasharray:none;stroke-dashoffset:0;stroke-opacity:1"
       d="m 99.203062,109.55444 1.870888,9.35443 -0.26727,0.86863 1.3221,5.90933"
       id="path3401-1"
       sodipodi:nodetypes="cccc" />
    <path
       style="fill:none;stroke:#000000;stroke-width:0;stroke-linecap:butt;stroke-linejoin:round;stroke-miterlimit:4;stroke-dasharray:none;stroke-dashoffset:0;stroke-opacity:1"
       d="m 99.857948,109.81666 1.795382,8.92969 0.66146,0.70871 0.5906,2.66946 -0.66147,3.40178"
       id="path3403-5"
       sodipodi:nodetypes="ccccc" />
    <path
       style="fill:none;stroke:#000000;stroke-width:0;stroke-linecap:butt;stroke-linejoin:round;stroke-miterlimit:4;stroke-dasharray:none;stroke-dashoffset:0;stroke-opacity:1"
       d="m 99.077006,109.5186 c 0.850448,0.28348 0.850448,0.28348 0.850448,0.28348"
       id="path3423" />
    <path
       style="fill:none;stroke:#000000;stroke-width:0;stroke-linecap:butt;stroke-linejoin:round;stroke-miterlimit:4;stroke-dasharray:none;stroke-dashoffset:0;stroke-opacity:1"
       d="m 97.286105,129.75935 c 1.069078,-3.80859 1.035669,-3.842 1.035669,-3.842"
       id="path3425" />
    <path
       style="fill:none;stroke:#000000;stroke-width:0;stroke-linecap:butt;stroke-linejoin:round;stroke-miterlimit:4;stroke-dasharray:none;stroke-dashoffset:0;stroke-opacity:1"
       d="m 99.925393,125.68349 c 2.071337,0 2.171567,0 2.171567,0"
       id="path3427" />
    <path
       style="opacity:0.985;fill:#e0a724;fill-opacity:1;fill-rule:evenodd;stroke-width:0;stroke-linecap:round;stroke-linejoin:round;stroke-miterlimit:4;stroke-dasharray:none;stroke-dashoffset:0;paint-order:markers fill stroke"
       d="m 269.72725,461.76182 c -0.30423,-0.48614 -1.94314,-1.67938 -3.642,-2.65165 -1.69887,-0.97227 -3.09561,-2.03376 -3.10387,-2.35887 -0.0129,-0.50857 2.02907,-6.59778 3.58425,-10.68822 0.48655,-1.27972 0.52751,-1.25032 2.55353,1.83264 1.13248,1.72328 2.20013,3.13091 2.37255,3.12809 0.17241,-0.003 0.69786,-0.92019 1.16767,-2.03859 l 0.85418,-2.03346 -2.24314,-3.20884 c -1.23373,-1.76487 -2.24315,-3.4663 -2.24315,-3.78097 0,-0.31466 3.64384,-10.73805 8.09742,-23.1631 7.56393,-21.10263 8.11734,-22.89046 8.39997,-27.13667 0.25581,-3.8434 0.091,-5.48206 -1.06655,-10.6066 -1.39869,-6.19192 -1.70749,-9.31813 -1.09759,-11.11168 0.38687,-1.13767 10.06809,-9.21424 14.06804,-11.73629 3.10955,-1.96062 5.89804,-2.19916 7.45913,-0.63808 1.19761,1.19761 1.2872,2.47109 0.2686,3.81781 -0.55864,0.73859 -0.74552,2.55045 -0.75762,7.34562 l -0.0161,6.3652 -3.94024,-0.1828 c -1.00767,-0.0468 -2.1371,1.49734 -2.76843,4.12201 -0.56672,2.35604 0.5387,3.53446 2.25864,5.22003 1.8032,1.76716 6.09681,3.24017 5.39786,5.4588 -0.0985,0.3125 -34.40735,74.9295 -34.76189,74.9295 -0.15847,0 -0.53706,-0.39775 -0.8413,-0.88388 z"
       id="path3429"
       transform="scale(0.26458333)"
       sodipodi:nodetypes="ssssscscsssssssssscsssssss" />
    <path
       style="opacity:0.996;fill:#e0a724;fill-opacity:1;stroke-width:0;stroke-linecap:round;stroke-linejoin:round;stroke-miterlimit:4;stroke-dasharray:none;stroke-dashoffset:0;paint-order:markers fill stroke"
       d="m 382.15047,429.47815 c -0.68684,-0.46347 -1.31395,-0.88848 -1.39358,-0.94448 -0.0796,-0.056 -0.78865,-3.24314 -1.57562,-7.08256 -1.47529,-7.19754 -1.72642,-7.66146 -4.20175,-7.76231 -0.69432,-0.0283 -0.78643,0.19542 -0.45331,1.10092 0.68257,1.85536 2.23756,10.49345 1.94216,10.78884 -0.14986,0.14986 -15.4645,-8.79795 -34.03254,-19.88401 -18.56804,-11.08607 -35.23742,-20.97229 -37.04307,-21.96938 -3.93815,-2.17467 -6.56599,-4.63612 -6.56599,-6.15026 0,-0.60954 0.68423,-1.76379 1.52051,-2.565 1.44058,-1.38017 1.61472,-1.42268 3.31268,-0.80868 0.9857,0.35643 12.19688,6.08334 24.91373,12.72646 l 23.12156,12.0784 h 6.56622 6.56622 l 16.11821,11.40693 c 8.86501,6.27381 16.15935,11.44779 16.20964,11.49774 0.11433,0.11355 -13.24221,8.41006 -13.53933,8.41006 -0.11932,0 -0.7789,-0.3792 -1.46574,-0.84267 z"
       id="path3431"
       transform="scale(0.26458333)" />
    <path
       style="opacity:0.996;fill:#e0a724;fill-opacity:1;stroke-width:0;stroke-linecap:round;stroke-linejoin:round;stroke-miterlimit:4;stroke-dasharray:none;stroke-dashoffset:0;paint-order:markers fill stroke"
       d="m 388.5727,457.3424 c -0.17071,-0.55558 -0.55907,-2.14657 -0.86302,-3.53553 -0.30395,-1.38896 -1.10549,-3.10364 -1.7812,-3.8104 -0.98127,-1.02636 -1.53457,-2.79592 -2.74888,-8.79136 -0.83618,-4.1285 -1.52032,-7.77342 -1.52032,-8.09982 0,-0.32641 -1.6964,-6.63027 -0.93247,-7.02445 0.76393,-0.39418 4.79765,3.16714 8.47275,0.87536 3.67509,-2.29179 7.76062,-5.10438 7.98768,-5.10438 0.22706,0 2.27155,1.74517 3.28834,2.78689 1.70795,1.74981 1.98497,2.48294 3.63804,9.62783 0.98413,4.25359 1.78932,8.02944 1.78932,8.39078 0,0.39078 -2.91154,1.67469 -7.1856,3.16865 l -7.18561,2.51166 -1.32433,5.00746 c -0.89735,3.39299 -1.4244,4.68178 -1.6347,3.99731 z"
       id="path3433"
       transform="scale(0.26458333)"
       sodipodi:nodetypes="sssssssssssscss" />
    <path
       style="opacity:0.996;fill:#e0a724;fill-opacity:1;stroke-width:0;stroke-linecap:round;stroke-linejoin:round;stroke-miterlimit:4;stroke-dasharray:none;stroke-dashoffset:0;paint-order:markers fill stroke"
       d="m 225.1036,511.00675 c -4.58184,-7.33497 -8.57487,-16.01253 -11.67878,-25.38008 -2.43438,-7.34688 -2.67794,-8.49428 -2.68037,-12.62691 -0.005,-7.92451 3.01443,-15.96322 8.02982,-21.38044 4.58767,-4.95523 9.10051,-5.4072 16.64792,-1.6673 5.00663,2.48088 7.6709,4.4966 15.32249,11.5926 5.99559,5.56026 7.17091,7.14235 7.17091,9.65267 0,1.26609 -0.2401,1.5785 -1.38896,1.80723 -4.64138,0.92411 -8.33512,3.20295 -15.23425,9.39875 -6.19951,5.5675 -8.15429,8.31945 -10.29025,14.48666 -1.34921,3.8956 -1.54973,5.23928 -1.7675,11.84398 -0.1351,4.09743 -0.39223,7.44988 -0.5714,7.44988 -0.17917,0 -1.781,-2.32967 -3.55963,-5.17704 z"
       id="path3435"
       transform="scale(0.26458333)" />
    <path
       style="opacity:0.996;fill:#e0a724;fill-opacity:1;stroke-width:0;stroke-linecap:round;stroke-linejoin:round;stroke-miterlimit:4;stroke-dasharray:none;stroke-dashoffset:0;paint-order:markers fill stroke"
       d="m 453.63265,516.33889 c -1.94455,-0.0837 -10.13152,-0.49372 -18.19327,-0.91123 -8.06175,-0.41751 -15.05075,-0.7591 -15.53109,-0.7591 -0.73886,0 -0.87337,-0.5094 -0.87337,-3.30744 v -3.30743 l -6.43972,0.24139 -6.43972,0.24139 5.80838,-0.52637 c 3.1946,-0.2895 5.85462,-0.56596 5.91114,-0.61435 0.0565,-0.0484 -0.33635,-4.73894 -0.87305,-10.42345 -1.05836,-11.20983 -1.27326,-25.73468 -0.49064,-33.16248 0.50503,-4.79323 2.94861,-16.57728 4.40332,-21.23477 0.45446,-1.45504 0.71038,-2.76144 0.56871,-2.9031 -0.14167,-0.14167 -1.92675,0.31014 -3.96684,1.00402 -5.83359,1.98413 -5.86939,1.43318 -0.0481,-0.74034 l 5.252,-1.96096 12.2937,2.74097 c 13.04835,2.90923 18.8711,5.03398 18.8711,6.88618 0,0.49596 -0.18307,0.90175 -0.40682,0.90175 -0.22375,0 -6.95523,-2.05968 -14.95885,-4.57705 -8.00361,-2.51738 -14.8182,-4.47491 -15.14354,-4.35006 -0.32533,0.12484 -1.57159,4.12014 -2.76947,8.87844 -3.63858,14.4535 -4.49471,30.67313 -2.57339,48.75356 0.55883,5.25882 1.14438,9.69086 1.30121,9.84899 0.59717,0.60207 41.11682,5.39444 41.10999,4.86218 -0.004,-0.29373 -0.5629,-6.88817 -1.24252,-14.65428 -0.67962,-7.76611 -1.15237,-14.20352 -1.05054,-14.30534 0.10182,-0.10182 5.57352,1.40724 12.15934,3.35348 8.12631,2.40149 12.35614,3.89743 13.16273,4.65517 1.59719,1.50048 2.58467,4.77469 3.2193,10.67428 0.87406,8.12544 1.24019,7.40674 -3.85971,7.57638 l -4.38729,0.14594 -1.47993,3.6618 -1.47993,3.6618 -9.15879,-0.0989 c -5.03734,-0.0544 -10.74979,-0.16738 -12.69433,-0.25105 z"
       id="path3437"
       transform="scale(0.26458333)" />
    <path
       style="opacity:0.996;fill:#e0a724;fill-opacity:1;stroke-width:0;stroke-linecap:round;stroke-linejoin:round;stroke-miterlimit:4;stroke-dasharray:none;stroke-dashoffset:0;paint-order:markers fill stroke"
       d="m 466.44106,484.24083 -8.4048,-2.53598 -0.30221,-1.82716 c -0.16622,-1.00494 -0.30471,-2.88005 -0.30777,-4.16692 l -0.006,-2.33976 6.18718,1.72934 c 10.01785,2.80003 13.02034,4.72981 12.99882,8.35467 -0.011,1.85531 0.44197,4.19665 -0.17828,4.13568 -0.31484,-0.031 -5.36475,-1.95508 -9.98738,-3.34987 z"
       id="path3439"
       transform="scale(0.26458333)"
       sodipodi:nodetypes="ccsccssscc" />
    <path
       style="opacity:0.996;fill:#e0a724;fill-opacity:0.988235;stroke-width:0;stroke-linecap:round;stroke-linejoin:round;stroke-miterlimit:4;stroke-dasharray:none;stroke-dashoffset:0;paint-order:markers fill stroke"
       d="m 248.47974,449.31865 c 0.15869,-0.41355 0.54899,-1.73208 0.86733,-2.93007 0.31834,-1.19799 1.36971,-4.63573 2.33636,-7.63942 1.3846,-4.30236 1.63069,-5.61413 1.15969,-6.18165 -0.88571,-1.06722 -0.1482,-4.13238 1.20814,-5.02109 0.62657,-0.41054 1.84234,-0.88706 2.7017,-1.05894 3.93347,-0.78669 5.90634,6.11422 2.15299,7.53095 -1.74068,0.65703 -2.05484,1.44731 -3.74184,9.41278 -0.65863,3.10979 -1.27494,5.71975 -1.36958,5.79991 -0.0947,0.0802 -1.39411,0.30183 -2.8877,0.4926 -2.28718,0.29212 -2.6701,0.22821 -2.42709,-0.40507 z"
       id="path3441"
       transform="scale(0.26458333)" />
    <path
       style="opacity:0.996;fill:#212834;fill-opacity:1;stroke-width:0;stroke-linecap:round;stroke-linejoin:round;stroke-miterlimit:4;stroke-dasharray:none;stroke-dashoffset:0;paint-order:markers fill stroke"
       d="m 488.73545,550.70523 v -11.49826 l 2.17728,2.13685 c 1.19751,1.17526 2.33393,1.9802 2.52539,1.78874 0.71511,-0.71511 0.31721,-4.50963 -0.62233,-5.93481 -2.03724,-3.09024 -3.35297,-3.65495 -15.63701,-6.71142 l -11.80921,-2.93833 8.27367,-0.29278 8.27368,-0.29278 10.6066,1.77781 c 0,0 12.13794,2.01051 16.16244,4.17694 0.8923,0.48033 2.18514,2.11363 2.18514,2.11363 1.20183,1.1625 2.96328,3.43269 3.91434,5.04488 1.69839,2.87902 1.7292,3.03462 1.7292,8.73269 0,7.14496 -0.69193,8.84348 -4.63377,11.37482 l -2.66282,1.70998 -10.2413,0.15515 -10.2413,0.15516 z"
       id="path3443"
       sodipodi:nodetypes="ccssssccccssssscccc"
       transform="scale(0.26458333)" />
    <path
       style="opacity:0.996;fill:#212834;fill-opacity:1;stroke-width:0;stroke-linecap:round;stroke-linejoin:round;stroke-miterlimit:4;stroke-dasharray:none;stroke-dashoffset:0;paint-order:markers fill stroke"
       d="m 370.37042,529.08519 c 2.36271,-1.07431 3.59932,-1.21644 13.51079,-1.55287 l 10.91005,-0.37032 v -1.95357 -1.95358 h -4.29315 c -2.52538,0 -4.29314,-0.20797 -4.29314,-0.50507 0,-0.55404 27.64618,-0.57926 60.35661,-0.055 18.6146,0.29832 18.92657,0.31939 10.35406,0.69947 -4.86136,0.21554 -10.48664,0.531 -12.50063,0.70101 l -3.66181,0.30913 v 1.95064 1.95064 l 9.21764,0.0115 c 7.42092,0.009 9.9068,0.1973 12.75318,0.96456 3.53145,0.95193 3.47866,0.95305 -45.7094,0.96953 l -49.24494,0.0165 2.60074,-1.18254 z"
       id="path3445"
       transform="scale(0.26458333)" />
    <path
       style="opacity:0.996;fill:#212834;fill-opacity:1;stroke-width:0;stroke-linecap:round;stroke-linejoin:round;stroke-miterlimit:4;stroke-dasharray:none;stroke-dashoffset:0;paint-order:markers fill stroke"
       d="m 261.12501,425.22454 c -0.56568,-0.56568 -1.74223,-1.04792 -2.61739,-1.07281 l -1.58978,-0.0452 0.93022,-1.56481 c 6.89093,-11.59195 6.79229,-11.48993 9.06367,-9.37382 0.60796,0.56641 1.10539,1.35943 1.10539,1.76227 0,0.52577 -4.87073,9.96867 -5.78208,11.20974 -0.0453,0.0617 -0.54484,-0.35018 -1.11003,-0.91537 z"
       id="path3449"
       transform="scale(0.26458333)" />
    <path
       style="opacity:0.996;fill:#212834;fill-opacity:1;stroke-width:0;stroke-linecap:round;stroke-linejoin:round;stroke-miterlimit:4;stroke-dasharray:none;stroke-dashoffset:0;paint-order:markers fill stroke"
       d="m 341.37945,390.15699 c -8.65091,-5.72733 -11.74303,-8.03391 -11.74303,-8.75979 0,-0.72115 -3.25,-3.19112 -12.12183,-9.21249 -11.71943,-7.95405 -12.12183,-8.28255 -12.12183,-9.89579 0,-0.91774 0.12868,-1.66863 0.28595,-1.66863 0.15728,0 5.93141,3.86384 12.83141,8.5863 7.97131,5.45569 13.00414,8.5863 13.80349,8.5863 0.84065,0 5.81749,3.35147 15.00048,10.10152 l 13.74245,10.10153 -3.96703,-0.0323 -3.96704,-0.0322 z"
       id="path3451"
       transform="scale(0.26458333)" />
    <path
       style="opacity:0.996;fill:#212834;fill-opacity:1;stroke-width:0;stroke-linecap:round;stroke-linejoin:round;stroke-miterlimit:4;stroke-dasharray:none;stroke-dashoffset:0;paint-order:markers fill stroke"
       d="m 383.73793,462.73776 c -1.763,-7.97098 -2.10607,-10.28878 -1.73117,-11.69573 0.36778,-1.38022 0.0412,-3.88812 -1.53045,-11.75194 -1.79114,-8.96216 -2.02663,-11.33708 -1.02483,-10.33528 0.17467,0.17467 0.96995,3.56499 1.76731,7.53406 0.79735,3.96906 1.69025,8.39486 1.98421,9.83511 0.29737,1.45687 1.16116,3.40719 1.94701,4.39605 1.01223,1.27373 1.65447,2.99575 2.26633,6.07663 0.82878,4.17315 0.82228,4.46634 -0.22147,9.99862 -0.59141,3.13468 -1.11645,5.74084 -1.16675,5.79147 -0.0503,0.0506 -1.08089,-4.38141 -2.29019,-9.84899 z"
       id="path3453"
       transform="scale(0.26458333)" />
    <path
       style="opacity:0.996;fill:#212834;fill-opacity:1;stroke-width:0;stroke-linecap:round;stroke-linejoin:round;stroke-miterlimit:4;stroke-dasharray:none;stroke-dashoffset:0;paint-order:markers fill stroke"
       d="m 379.10787,431.99388 c -0.78631,-3.35633 -3.49906,-17.00415 -3.37349,-17.12973 0.0802,-0.0802 0.39746,0.0123 0.70508,0.20558 0.49275,0.30953 3.64146,14.72135 3.64146,16.52098 0,1.12562 -0.68525,1.63161 -0.97305,0.40317 z"
       id="path3455"
       transform="scale(0.26458333)"
       sodipodi:nodetypes="sssss" />
    <path
       style="opacity:0.996;fill:#212834;fill-opacity:1;stroke-width:0;stroke-linecap:round;stroke-linejoin:round;stroke-miterlimit:4;stroke-dasharray:none;stroke-dashoffset:0;paint-order:markers fill stroke"
       d="m 374.0147,482.54808 c -3.6202,-15.37129 -4.27032,-18.75332 -3.86116,-20.08649 0.39806,-1.29698 -0.15874,-4.85779 -2.91591,-18.64793 -1.87435,-9.37466 -3.25631,-17.19645 -3.07101,-17.38174 0.1853,-0.1853 0.52684,-0.12477 0.75899,0.1345 0.23215,0.25927 1.93083,8.07073 3.77484,17.3588 2.92173,14.7164 3.51221,17.05391 4.59312,18.18274 1.05375,1.10047 1.85235,4.02189 5.30811,19.41821 2.23726,9.96757 4.06775,18.43391 4.06775,18.81409 0,0.47672 -0.66749,0.69124 -2.15078,0.69124 h -2.15079 z"
       id="path3457"
       transform="scale(0.26458333)" />
    <path
       style="opacity:0.996;fill:#212834;fill-opacity:1;stroke-width:0;stroke-linecap:round;stroke-linejoin:round;stroke-miterlimit:4;stroke-dasharray:none;stroke-dashoffset:0;paint-order:markers fill stroke"
       d="m 386.92306,519.41532 c 0.14721,-1.36066 0.40645,-4.02277 0.57609,-5.9158 0.1729,-1.92948 0.56665,-3.52006 0.89608,-3.61979 0.32321,-0.0978 7.1789,-0.31478 15.23487,-0.48207 l 14.64721,-0.30417 -0.15597,6.07053 -0.15597,6.07053 h -12.52311 c -6.88772,0 -13.93246,0.1473 -15.65499,0.32734 l -3.13187,0.32735 z"
       id="path3459"
       transform="scale(0.26458333)" />
    <path
       style="opacity:0.996;fill:#212834;fill-opacity:1;stroke-width:0;stroke-linecap:round;stroke-linejoin:round;stroke-miterlimit:4;stroke-dasharray:none;stroke-dashoffset:0;paint-order:markers fill stroke"
       d="m 438.98544,521.75113 c -8.33376,-0.20509 -16.28871,-0.40492 -17.67767,-0.44405 l -2.52539,-0.0711 0.17302,-2.77861 0.17301,-2.77861 h 2.48014 c 1.36408,0 8.67296,0.32963 16.24197,0.73252 7.569,0.40289 19.29238,0.80063 26.05194,0.88388 l 12.29012,0.15137 1.54372,-3.66181 1.54373,-3.6618 h 4.04162 4.04162 l -0.2645,5.58046 c -0.14548,3.06925 -0.34952,5.66547 -0.45343,5.76938 -0.43032,0.43033 -33.61137,0.62416 -47.6599,0.27842 z"
       id="path3461"
       transform="scale(0.26458333)" />
    <path
       style="opacity:0.996;fill:#212834;fill-opacity:1;stroke-width:0;stroke-linecap:round;stroke-linejoin:round;stroke-miterlimit:4;stroke-dasharray:none;stroke-dashoffset:0;paint-order:markers fill stroke"
       d="m 346.55648,520.86589 c -0.83338,-0.11952 -1.97289,-0.64282 -2.53225,-1.16289 -0.89014,-0.8276 -0.98416,-1.38795 -0.75358,-4.49124 0.40322,-5.42686 0.035,-5.27887 12.04208,-4.83937 l 10.11469,0.37023 0.33164,1.96297 0.33165,1.96297 h 4.70654 c 4.21387,0 4.68781,0.0925 4.52761,0.88388 -0.0984,0.48614 -0.31835,1.96348 -0.48874,3.283 l -0.3098,2.39911 -13.22731,-0.0757 c -7.27502,-0.0416 -13.90916,-0.17346 -14.74253,-0.29298 z"
       id="path3463"
       transform="scale(0.26458333)" />
    <path
       style="opacity:0.996;fill:#212834;fill-opacity:1;stroke-width:0;stroke-linecap:round;stroke-linejoin:round;stroke-miterlimit:4;stroke-dasharray:none;stroke-dashoffset:0;paint-order:markers fill stroke"
       d="m 377.93298,521.36574 -2.46361,-0.19181 0.31628,-2.3688 c 0.17396,-1.30284 0.57005,-4.13026 0.88022,-6.28315 l 0.56393,-3.91434 h 4.79593 4.79594 l -0.36537,6.18719 c -0.20095,3.40295 -0.46677,6.35764 -0.5907,6.56599 -0.22291,0.37473 -3.15924,0.37656 -7.93262,0.005 z"
       id="path3465"
       transform="scale(0.26458333)" />
    <path
       style="opacity:0.996;fill:#212834;fill-opacity:1;stroke-width:0;stroke-linecap:round;stroke-linejoin:round;stroke-miterlimit:4;stroke-dasharray:none;stroke-dashoffset:0;paint-order:markers fill stroke"
       d="m 487.84905,518.475 c 0.14413,-1.79555 0.0844,-7.30719 -0.13272,-12.2481 -0.30325,-6.90072 -0.86317,-10.556 -2.04959,-12.70368 -1.73864,-3.14734 -0.62572,-2.60572 0.83628,-2.05463 2.41492,0.91029 3.50491,8.53247 3.90882,20.87482 0,0 -0.13393,4.80877 -0.2787,7.69978 -0.0341,0.68028 -0.53806,1.37603 -1.13914,1.69643 -0.41387,0.22061 -1.407,0 -1.407,0 z"
       id="path3467"
       transform="scale(0.26458333)"
       sodipodi:nodetypes="ssssssscs" />
    <path
       style="opacity:0.996;fill:#212834;fill-opacity:1;stroke-width:0;stroke-linecap:round;stroke-linejoin:round;stroke-miterlimit:4;stroke-dasharray:none;stroke-dashoffset:0;paint-order:markers fill stroke"
       d="m 387.54378,508.21511 c -1.82961,-6.75237 -1.97224,-8.3529 -1.71311,-19.22256 0.22635,-9.49438 0.47191,-12.04459 1.8561,-19.27578 2.47175,-12.91274 4.1775,-19.71806 5.06015,-20.18819 0.80652,-0.42959 26.89631,-8.60116 27.46134,-8.60116 0.17429,0 0.12256,0.51139 -0.11495,1.13642 -1.20741,3.17742 -4.08503,17.56415 -4.62188,23.10724 -0.72392,7.47461 -0.37299,23.04519 0.7619,33.80431 0.42279,4.00829 0.70524,7.35127 0.62766,7.42885 -0.0776,0.0776 -5.70004,0.60111 -12.49435,1.16339 -6.79431,0.56228 -13.3059,1.13377 -14.47019,1.26998 -1.70662,0.19965 -2.16259,0.079 -2.35267,-0.6225 z m 16.73531,-3.10418 c 5.35721,-0.50376 9.88308,-1.05862 10.05749,-1.23304 0.17442,-0.17441 -0.0625,-4.01136 -0.52654,-8.52655 -2.05115,-19.95927 -1.54642,-29.07631 2.43492,-43.98193 1.2001,-4.49303 2.09118,-8.26417 1.98018,-8.38032 -0.20815,-0.21779 -23.08343,6.39478 -24.45561,7.06939 -1.37292,0.67499 -4.95833,17.18538 -6.0647,27.92725 -0.74018,7.18645 -0.40793,24.4985 0.51778,26.97886 l 0.61963,1.66025 2.84824,-0.299 c 1.56653,-0.16444 7.23141,-0.71116 12.58861,-1.21491 z"
       id="path3469"
       transform="scale(0.26458333)" />
    <path
       style="opacity:0.996;fill:#212834;fill-opacity:1;stroke-width:0.190895;stroke-linecap:round;stroke-linejoin:round;stroke-miterlimit:4;stroke-dasharray:none;paint-order:markers fill stroke"
       d=""
       id="path3471"
       transform="scale(0.26458333)" />
    <path
       style="opacity:0.996;fill:#dfa524;fill-opacity:1;stroke-width:0;stroke-linecap:round;stroke-linejoin:round;stroke-miterlimit:4;stroke-dasharray:none;stroke-dashoffset:0;paint-order:markers fill stroke"
       d="m 453.3307,510.71552 -5.85779,-0.71737 -0.3294,-8.35207 c -0.18116,-4.59363 -0.32939,-9.66752 -0.32939,-11.27531 v -2.92326 l 4.04061,-2.8929 c 3.56433,-2.5519 4.03873,-3.07596 4.0247,-4.44595 -0.0313,-3.05527 -1.87017,-27.09354 -2.08937,-27.31274 -0.42168,-0.42168 -7.98264,-2.95911 -8.16981,-2.74176 -0.16687,0.19378 0.46479,20.20022 1.55767,49.33621 0.36842,9.82186 0.34581,10.22816 -0.56913,10.2278 -1.71341,-5.1e-4 -25.26469,-3.06853 -25.52054,-3.32438 -0.13708,-0.13708 -0.74248,-5.02545 -1.34533,-10.86305 -0.93703,-9.0735 -1.03794,-11.98438 -0.69534,-20.05793 0.49434,-11.6493 0.79898,-14.71703 2.06639,-20.80833 0.94227,-4.52865 3.36549,-13.70199 3.71125,-14.04931 0.2107,-0.21165 29.70899,9.01942 30.14781,9.43433 0.34031,0.32177 5.66846,61.20525 5.37222,61.38714 -0.0862,0.053 -2.79277,-0.22656 -6.01455,-0.62112 z m -20.11242,-16.04271 6.85975,-0.3346 1.81314,-2.9006 1.81314,-2.9006 -0.44627,-18.37522 c -0.24544,-10.10638 -0.45488,-18.96399 -0.4654,-19.68359 -0.0183,-1.24861 -0.33275,-1.39413 -6.88604,-3.18623 -4.4852,-1.22656 -7.36743,-1.76794 -8.31004,-1.56091 -3.47298,0.7628 -6.04277,4.67062 -6.97136,10.60119 -1.59653,10.19641 -1.97335,21.30277 -1.07105,31.56726 0.71201,8.09968 0.52726,7.75377 3.95303,7.40129 1.56824,-0.16136 5.93824,-0.44396 9.7111,-0.62799 z"
       id="path3473"
       transform="scale(0.26458333)" />
    <path
       style="opacity:0.996;fill:#c98700;fill-opacity:1;stroke-width:0;stroke-linecap:round;stroke-linejoin:round;stroke-miterlimit:4;stroke-dasharray:none;stroke-dashoffset:0;paint-order:markers fill stroke"
       d="m 210.61002,518.83544 c -3.59406,-5.55279 -7.73219,-14.11846 -9.71527,-20.11002 -2.63014,-7.94653 -4.58652,-12.56927 -4.55715,-20.73091 0.0457,-12.70542 3.09685,-17.88481 16.25983,-24.85601 2.71531,-1.43805 5.06434,-2.61463 5.22005,-2.61463 0.15572,0 -0.50373,1.0796 -1.46543,2.39911 -4.25234,5.83447 -6.46697,12.68504 -6.49393,20.0879 -0.0154,4.23456 0.19611,5.19894 2.99135,13.63706 3.20735,9.68221 6.04555,16.07449 10.17844,22.9242 2.66372,4.41475 2.86847,4.83987 2.10331,4.36697 -0.25273,-0.15619 -0.8396,-0.13812 -1.30417,0.0401 -0.71401,0.274 -0.79151,0.78208 -0.50106,3.28464 0.41929,3.61263 -0.14463,3.79681 -2.10832,0.68857 -0.84318,-1.33464 -1.81498,-2.27232 -2.35556,-2.27285 -0.82084,-10e-4 -0.88274,0.29912 -0.57315,2.77702 0.42699,3.41755 -0.30452,3.66219 -1.51024,0.50508 -0.60403,-1.58166 -1.15721,-2.27285 -1.81899,-2.27285 -0.75979,0 -1.01833,0.50771 -1.28598,2.52538 -0.18425,1.38896 -0.52603,2.52538 -0.75949,2.52538 -0.23347,0 -1.27038,-1.30688 -2.30424,-2.90418 z"
       id="path3475"
       transform="scale(0.26458333)"
       sodipodi:nodetypes="ssssssssssssscsssssss" />
    <path
       style="opacity:0.996;fill:#c98700;fill-opacity:1;stroke-width:0;stroke-linecap:round;stroke-linejoin:round;stroke-miterlimit:4;stroke-dasharray:none;stroke-dashoffset:0;paint-order:markers fill stroke"
       d="m 263.01791,469.39298 c -0.65085,-0.45587 -2.03699,-1.0809 -3.0803,-1.38896 -1.37751,-0.40673 -3.84977,-2.45967 -9.02867,-7.49733 l -7.13173,-6.93724 2.40569,-1.21906 c 5.84626,-2.96253 9.32404,-2.64245 9.99229,0.91964 0.38823,2.06943 1.10825,2.72316 4.77086,4.33163 3.87004,1.69957 7.91531,4.29536 8.55417,5.48909 1.00102,1.87041 0.63373,4.08181 -0.93917,5.65472 -1.68767,1.68766 -3.71929,1.92499 -5.54314,0.64751 z"
       id="path3477"
       transform="scale(0.26458333)" />
    <path
       style="opacity:0.996;fill:#c98700;fill-opacity:1;stroke-width:0.190895;stroke-linecap:round;stroke-linejoin:round;stroke-miterlimit:4;stroke-dasharray:none;paint-order:markers fill stroke"
       d=""
       id="path3479"
       transform="scale(0.26458333)" />
    <path
       style="opacity:0.996;fill:#c98700;fill-opacity:1;stroke-width:0;stroke-linecap:round;stroke-linejoin:round;stroke-miterlimit:4;stroke-dasharray:none;stroke-dashoffset:0;paint-order:markers fill stroke"
       d="m 267.41798,412.58321 c -0.81337,-0.87244 -1.87535,-1.45529 -2.65165,-1.45529 -0.71219,0 -1.2949,-0.10226 -1.2949,-0.22724 0,-0.22825 15.62253,-27.07895 16.03054,-27.55195 0.11981,-0.1389 0.77322,0.39273 1.45201,1.18138 1.01466,1.17889 1.17525,1.76281 0.90286,3.283 -0.32333,1.8045 -12.32871,26.39987 -12.82957,26.28388 -0.13889,-0.0322 -0.86307,-0.71337 -1.60929,-1.51378 z"
       id="path3481"
       transform="scale(0.26458333)" />
    <path
       style="opacity:0.996;fill:#c98700;fill-opacity:1;stroke-width:0;stroke-linecap:round;stroke-linejoin:round;stroke-miterlimit:4;stroke-dasharray:none;stroke-dashoffset:0;paint-order:markers fill stroke"
       d="m 342.19592,412.50975 -35.97379,-20.96007 1.32239,-2.7965 1.50095,-2.97507 2.86659,1.71882 c 1.03852,0.62271 16.0207,9.38108 33.43394,19.79828 17.41324,10.4172 31.20242,18.04398 31.32546,18.46066 0.58917,1.99529 1.51903,7.08557 1.12969,7.045 -0.23926,-0.0249 -16.26161,-9.15594 -35.60523,-20.29112 z"
       id="path3483"
       transform="scale(0.26458333)"
       sodipodi:nodetypes="scccsssss" />
    <path
       style="opacity:0.996;fill:#c98700;fill-opacity:1;stroke-width:0;stroke-linecap:round;stroke-linejoin:round;stroke-miterlimit:4;stroke-dasharray:none;stroke-dashoffset:0;paint-order:markers fill stroke"
       d="m 267.51595,438.15421 c -0.56097,-0.67592 0.51518,-4.03164 7.09333,-22.11904 6.83348,-18.78948 7.77732,-21.76066 7.94575,-25.01318 0.16165,-3.12141 0.32122,-3.66447 1.03411,-3.51933 0.69501,0.14151 0.82625,0.745 0.74776,3.43842 -0.082,2.8152 -1.20553,6.35935 -8.12742,25.63836 -6.84713,19.07078 -8.12981,22.25402 -8.69353,21.57477 z"
       id="path3485"
       transform="scale(0.26458333)" />
    <path
       style="opacity:0.996;fill:#c98700;fill-opacity:1;stroke-width:0.190895;stroke-linecap:round;stroke-linejoin:round;stroke-miterlimit:4;stroke-dasharray:none;paint-order:markers fill stroke"
       d=""
       id="path3487"
       transform="scale(0.26458333)" />
    <path
       style="opacity:0.996;fill:#c98700;fill-opacity:1;stroke-width:0;stroke-linecap:round;stroke-linejoin:round;stroke-miterlimit:4;stroke-dasharray:none;stroke-dashoffset:0;paint-order:markers fill stroke"
       d="m 282.20181,384.48515 -2.05634,-2.39911 -0.003,-5.60383 c -0.003,-4.96479 0.11193,-5.70808 1.00689,-6.518 0.9937,-0.89929 1.01029,-0.88205 1.01847,1.05814 0.005,1.08477 0.68643,5.0373 1.51523,8.7834 1.74657,7.8943 1.62658,7.07851 1.04113,7.07851 -0.25617,0 -1.39113,-1.0796 -2.52212,-2.39911 z"
       id="path3489"
       transform="scale(0.26458333)" />
    <path
       style="opacity:0.996;fill:#c98700;fill-opacity:1;stroke-width:0;stroke-linecap:round;stroke-linejoin:round;stroke-miterlimit:4;stroke-dasharray:none;stroke-dashoffset:0;paint-order:markers fill stroke"
       d="m 366.51905,511.68289 -0.53195,-1.97552 -10.3053,-0.17106 c -5.66791,-0.0941 -10.4034,-0.2847 -10.52331,-0.42359 -0.42882,-0.49672 1.04953,-13.41283 1.69557,-14.81399 0.3625,-0.78621 1.51439,-1.86581 2.55975,-2.39912 1.71426,-0.87455 3.06236,-0.96964 13.74664,-0.96964 h 11.84598 l 1.82647,7.70242 c 1.00456,4.23632 1.94856,8.10016 2.09777,8.58629 0.21752,0.70866 -0.0358,0.88389 -1.27796,0.88389 -1.29409,0 -1.54927,0.19757 -1.54927,1.19955 0,0.65976 -0.14205,1.90982 -0.31567,2.77792 l -0.31568,1.57836 h -4.21054 -4.21055 z"
       id="path3491"
       transform="scale(0.26458333)" />
    <path
       style="opacity:0.996;fill:#c98700;fill-opacity:1;stroke-width:0;stroke-linecap:round;stroke-linejoin:round;stroke-miterlimit:4;stroke-dasharray:none;stroke-dashoffset:0;paint-order:markers fill stroke"
       d="m 379.9229,507.47722 c -0.25107,-0.82457 -1.29408,-5.31757 -1.29408,-5.57451 0,-0.10819 1.27497,-0.091 2.83326,0.0383 2.59383,0.2151 2.80873,0.15459 2.54297,-0.71606 -0.15967,-0.52306 -1.44255,-6.17856 -2.85085,-12.56777 -1.4083,-6.38922 -2.68159,-12.0145 -2.82953,-12.50064 -0.23976,-0.78782 0.14792,-0.88388 3.56718,-0.88388 h 3.83617 l -0.39287,3.40926 c -0.6206,5.3854 -0.39128,22.73516 0.34083,25.78615 0.35355,1.47341 0.56039,2.74872 0.45963,2.83404 -0.10075,0.0853 -1.49616,0.30303 -3.10092,0.48382 -2.14319,0.24144 -2.96925,0.1595 -3.11179,-0.30866 z"
       id="path3493"
       transform="scale(0.26458333)" />
    <path
       style="opacity:0.996;fill:#c98700;fill-opacity:1;stroke-width:0;stroke-linecap:round;stroke-linejoin:round;stroke-miterlimit:4;stroke-dasharray:none;stroke-dashoffset:0;paint-order:markers fill stroke"
       d="m 369.97661,483.79686 c 0.98578,-3.64542 1.85018,-6.42965 1.9209,-6.18718 0.0707,0.24247 0.78495,3.22508 1.58718,6.62803 l 1.45862,6.18719 h -3.37951 -3.3795 z"
       id="path3495"
       transform="scale(0.26458333)" />
    <path
       style="opacity:0.996;fill:#c98700;fill-opacity:1;stroke-width:0;stroke-linecap:round;stroke-linejoin:round;stroke-miterlimit:4;stroke-dasharray:none;stroke-dashoffset:0;paint-order:markers fill stroke"
       d="m 259.84708,443.14024 -2.97721,-4.43515 0.23772,-0.90428 c 0.23561,-0.89628 0.69627,-2.50477 0.7817,-2.72947 0.0426,-0.11214 0.0582,-0.11676 0.39149,-0.11655 l 0.34708,2.2e-4 -0.12916,0.10336 c -0.071,0.0568 -0.12126,0.12265 -0.11161,0.14623 0.01,0.0236 0.55231,0.84584 1.20589,1.82723 2.31484,3.47587 3.79654,5.92807 4.18871,6.93226 l 0.0926,0.23721 -0.4753,1.52619 c -0.26142,0.8394 -0.49768,1.59857 -0.52502,1.68705 l -0.0497,0.16086 z"
       id="path3497"
       transform="scale(0.26458333)" />
    <path
       style="opacity:0.996;fill:#c98700;fill-opacity:0.996078;stroke-width:0;stroke-linecap:round;stroke-linejoin:round;stroke-miterlimit:4;stroke-dasharray:none;stroke-dashoffset:0;paint-order:markers fill stroke"
       d="m 261.15386,456.9375 c -0.35401,-0.15763 -0.65139,-0.29434 -0.66085,-0.3038 -0.009,-0.009 0.65828,-2.19414 1.48387,-4.85486 2.12685,-6.8544 2.20046,-7.08714 2.27549,-7.19425 0.0371,-0.053 0.0673,-0.15714 0.0671,-0.23147 -3.2e-4,-0.13798 0.76332,-2.74584 0.80389,-2.74529 0.0321,4.3e-4 1.42874,2.16541 1.42771,2.21314 -0.002,0.0963 -4.68008,13.3855 -4.71484,13.39384 -0.0213,0.005 -0.32841,-0.11968 -0.68241,-0.27731 z"
       id="path3499"
       transform="scale(0.26458333)" />
    <path
       style="opacity:0.996;fill:#e0a724;fill-opacity:0.996078;stroke-width:0;stroke-linecap:round;stroke-linejoin:round;stroke-miterlimit:4;stroke-dasharray:none;stroke-dashoffset:0;paint-order:markers fill stroke"
       d="m 268.97411,446.39898 c -1.34291,-1.96682 -3.79657,-5.55916 -5.45257,-7.98298 l -3.01092,-4.40694 0.22918,-0.22917 c 0.41248,-0.41249 0.67865,-1.13259 0.77807,-2.10502 l 0.0489,-0.47834 2.42336,3.52736 c 3.90561,5.68489 6.69918,9.68502 8.06849,11.55335 0.32355,0.44145 0.58827,0.81706 0.58827,0.83468 0,0.0433 -1.06823,2.55734 -1.1591,2.72789 -0.0653,0.12261 -0.29937,-0.19776 -2.51368,-3.44083 z"
       id="path3501"
       transform="scale(0.26458333)" />
    <path
       style="fill:none;stroke:#000000;stroke-width:0;stroke-linecap:butt;stroke-linejoin:round;stroke-miterlimit:4;stroke-dasharray:none;stroke-dashoffset:0;stroke-opacity:1"
       d="m 117.29073,129.24423 c 0.8032,-0.42522 0.75596,-0.42522 0.75596,-0.42522"
       id="path3503" />
    <path
       style="fill:none;stroke:#000000;stroke-width:0;stroke-linecap:butt;stroke-linejoin:round;stroke-miterlimit:4;stroke-dasharray:none;stroke-dashoffset:0;stroke-opacity:1"
       d="m 120.2673,127.3071 c 0.7087,-0.0236 0.7087,-0.0236 0.7087,-0.0236 v 0"
       id="path3505" />
    <path
       style="fill:none;stroke:#000000;stroke-width:0;stroke-linecap:butt;stroke-linejoin:round;stroke-miterlimit:4;stroke-dasharray:none;stroke-dashoffset:0;stroke-opacity:1"
       d="m 111.33761,130.89788 c -0.68508,0.0472 -0.68508,0.0472 -0.68508,0.0472"
       id="path3507" />
    <path
       style="opacity:0.996;fill:#e0a624;fill-opacity:1;stroke-width:0;stroke-linecap:round;stroke-linejoin:round;stroke-miterlimit:4;stroke-dasharray:none;stroke-dashoffset:0;paint-order:markers fill stroke"
       d="m 466.19528,516.55315 c -3.04465,-0.0385 -7.14286,-0.11249 -9.10715,-0.16444 -3.76861,-0.0997 -4.22165,-0.12068 -22.23214,-1.03141 -6.28571,-0.31784 -12.28294,-0.61694 -13.32716,-0.66467 -1.04423,-0.0477 -1.93849,-0.11143 -1.98725,-0.14157 -0.0487,-0.0301 -0.1586,-0.18282 -0.2441,-0.3393 -0.13704,-0.25083 -0.15898,-0.63632 -0.18526,-3.25561 l -0.0298,-2.97109 -0.90785,0.051 c -1.5101,0.0848 -24.89061,1.06917 -25.47241,1.05852 -0.299,-0.005 16.07804,-1.28009 17.79679,-1.44352 3.43027,-0.32617 4.66037,-0.54802 6.9571,-1.16517 0.18383,-0.0494 -0.0425,-2.54695 -0.50714,-7.6804 -0.70482,-7.78659 -1.07165,-11.50787 -1.24891,-18.52361 -0.1352,-5.35093 -0.0497,-11.13201 0.25347,-14.90372 0.41216,-5.12783 2.60099,-16.11129 4.54652,-22.79017 0.42768,-1.46823 0.61206,-1.81774 0.17834,-2.03701 -0.28368,-0.14342 -1.79876,0.40757 -1.91531,0.40757 -0.36643,0 -10.77218,3.43067 -13.06781,4.17512 -2.47217,0.80169 -12.15972,3.82276 -12.37596,3.77544 -0.35632,-0.078 21.61632,-7.977 26.45932,-9.78368 l 2.95828,-1.10359 4.31851,0.96369 c 9.36515,2.08988 10.48145,2.34415 13.0685,2.97674 8.06483,1.97203 12.43986,3.59307 13.446,4.982 0.31324,0.43242 0.35307,0.9993 0.0928,1.32074 l -0.16657,0.20571 -0.70396,-0.20162 c -1.4383,-0.41195 -6.66187,-2.01325 -11.64147,-3.56872 -7.56498,-2.36308 -9.81226,-3.04612 -13.52678,-4.11138 -1.83409,-0.52598 -3.9963,-1.08135 -4.21003,-1.08135 -0.33709,0 -1.59293,3.93862 -2.83266,8.88393 -3.43201,13.69037 -4.00283,27.50569 -2.52556,44.46242 0.41188,4.72781 1.00864,13.75424 1.22717,14.16582 0.0948,0.17865 0.78641,0.3131 4.05537,0.78843 10.28369,1.49532 35.02709,4.30952 36.76825,4.18185 l 0.36952,-0.0271 -0.0256,-0.44643 c -0.0324,-0.56468 -0.30068,-3.7555 -1.03601,-12.32143 -0.82451,-9.60474 -1.20627,-14.54584 -1.2088,-15.64509 l -0.001,-0.5558 0.29017,0.0546 c 0.45182,0.085 5.21612,1.39257 7.79018,2.13807 9.00995,2.60944 13.97749,4.21881 16.07143,5.20679 1.08605,0.51242 1.60552,1.03211 2.20952,2.21043 1.09259,2.13152 1.64543,4.81898 2.34251,11.38748 0.27604,2.60111 0.2904,3.80032 0.0518,4.3258 -0.32051,0.70591 -0.44704,0.72906 -4.81942,0.88196 -2.03374,0.0711 -3.71085,0.14245 -3.72692,0.15851 -0.0161,0.0161 -0.68512,1.65344 -1.48678,3.6386 l -1.45757,3.60939 -1.86908,0.009 c -1.02799,0.005 -4.36015,-0.0228 -7.40479,-0.0613 z"
       id="path3509"
       transform="scale(0.26458333)"
       sodipodi:nodetypes="csssssscscssssssssssscsssscssssssssscssccssssssssscscc" />
    <path
       style="opacity:0.996;fill:#e0a724;fill-opacity:0.996078;stroke-width:0;stroke-linecap:round;stroke-linejoin:round;stroke-miterlimit:4;stroke-dasharray:none;stroke-dashoffset:0;paint-order:markers fill stroke"
       d="m 444.98992,509.53523 c -6.16652,-0.65284 -20.99332,-2.57706 -24.29799,-3.15339 l -0.59263,-0.10336 -0.14652,-0.94075 c -0.30141,-1.93522 -1.23036,-10.12331 -1.15717,-10.19967 0.0206,-0.0215 0.4284,-0.0656 0.90611,-0.098 0.82045,-0.0555 0.8823,-0.0474 1.11672,0.14724 0.37662,0.31268 0.74532,0.33899 2.50734,0.1789 3.06027,-0.27803 8.15251,-0.58436 14.38735,-0.86549 1.27679,-0.0576 2.35855,-0.13879 2.40392,-0.1805 0.0454,-0.0417 0.88912,-1.36637 1.875,-2.94371 l 1.79251,-2.8679 0.9375,-0.51939 c 0.51563,-0.28566 0.94599,-0.5111 0.95637,-0.50099 0.0469,0.0458 0.57641,15.05582 0.62398,17.689 0.0603,3.3379 0.0218,3.89702 -0.28957,4.20841 -0.20948,0.20949 -0.31343,0.22469 -1.02292,0.14958 z"
       id="path3511"
       transform="scale(0.26458333)" />
    <path
       style="opacity:0.996;fill:#dea424;fill-opacity:1;stroke-width:0;stroke-linecap:round;stroke-linejoin:round;stroke-miterlimit:4;stroke-dasharray:none;stroke-dashoffset:0;paint-order:markers fill stroke"
       d="m 458.29349,511.23218 c -2.56149,-0.26687 -10.71927,-1.25056 -10.76009,-1.29749 -0.0191,-0.022 -0.15674,-3.42275 -0.49249,-12.16816 -0.0471,-1.22768 -0.11238,-4.04163 -0.14499,-6.25322 l -0.0593,-4.02107 1.86684,-1.32938 c 3.1697,-2.25716 4.87949,-3.56765 5.44662,-4.17464 l 0.54408,-0.58232 1.10771,-0.034 1.1077,-0.034 0.24336,2.8125 c 1.06403,12.29734 1.99967,23.86866 2.09186,25.87053 l 0.0586,1.27233 -0.34869,-0.0143 c -0.19178,-0.008 -0.48931,-0.0289 -0.66119,-0.0468 z"
       id="path3513"
       transform="scale(0.26458333)" />
    <path
       style="opacity:0.996;fill:#212834;fill-opacity:0.996078;stroke-width:0;stroke-linecap:round;stroke-linejoin:round;stroke-miterlimit:4;stroke-dasharray:none;stroke-dashoffset:0;paint-order:markers fill stroke"
       d="m 418.69836,494.48528 c -0.0374,-0.11622 -0.40451,-4.1522 -0.60294,-6.62946 -0.15037,-1.87729 -0.15091,-9.78998 -8.7e-4,-12.85715 0.0624,-1.27678 0.15403,-3.14509 0.20349,-4.15178 0.41525,-8.4509 0.9086,-12.24625 2.46048,-18.92857 1.17528,-5.06072 2.87738,-11.21569 3.12821,-11.31195 0.23112,-0.0887 8.50167,2.40176 18.78176,5.65562 8.03501,2.54324 11.12802,3.58396 11.25313,3.78639 0.0766,0.12388 0.17997,1.01142 0.57674,4.95029 0.53164,5.27785 2.39213,25.76777 2.34339,25.80821 -0.0118,0.01 -0.46344,0.0454 -1.00362,0.079 l -0.98214,0.0612 -0.0128,-1.5903 c -0.0268,-3.32448 -1.78222,-26.36157 -2.02738,-26.60673 -0.36909,-0.36908 -7.30094,-2.70679 -8.02628,-2.70679 h -0.27341 l 0.0608,2.79017 c 0.0334,1.5346 0.12058,4.79911 0.19364,7.25447 0.23022,7.73753 0.80905,24.77876 0.8846,26.04352 l 0.0463,0.77567 -0.95845,0.52991 c -0.52715,0.29146 -0.9694,0.52076 -0.98277,0.50955 -0.0237,-0.0198 -0.35121,-13.15008 -0.74062,-29.68901 -0.14688,-6.23807 -0.22049,-8.23795 -0.31131,-8.45856 -0.25264,-0.61366 -1.44374,-1.08454 -5.70947,-2.25715 -4.90522,-1.3484 -7.10962,-1.81217 -8.66071,-1.82209 -0.9665,-0.006 -1.12634,0.0163 -1.63204,0.22935 -0.92343,0.38906 -1.52524,0.79635 -2.28963,1.54952 -1.27019,1.25157 -2.1849,2.84767 -2.94616,5.14085 -0.48187,1.45156 -0.75691,2.74113 -1.11252,5.2163 -1.02713,7.14925 -1.48565,15.14892 -1.27262,22.20332 0.1714,5.67581 0.75247,12.75055 1.16219,14.15011 0.0728,0.24878 0.0599,0.28809 -0.10977,0.3336 -0.37409,0.10037 -1.40159,0.0593 -1.43923,-0.0576 z"
       id="path3517"
       transform="scale(0.26458333)" />
    <path
       style="opacity:0.996;fill:#dfa524;fill-opacity:1;stroke-width:0;stroke-linecap:round;stroke-linejoin:round;stroke-miterlimit:4;stroke-dasharray:none;stroke-dashoffset:0;paint-order:markers fill stroke"
       d="m 455.9261,511.37876 c -3.02361,-0.367 -2.97914,-0.45484 -5.50731,-0.67 l -3.45785,-0.29429 -0.0348,-1.301 c -0.0313,-1.16772 -0.70081,-10.64956 -0.79446,-15.38918 -0.072,-3.64206 -0.2568,-6.14932 -0.1665,-6.23683 0.0621,-0.0601 2.16762,-0.8601 3.4444,-1.77775 2.86306,-2.05773 4.02425,-2.95697 4.75783,-3.68451 l 0.56743,-0.56276 1.05697,-0.0531 1.05698,-0.0531 0.0553,0.48198 c 0.21021,1.83117 1.49963,10.38773 1.66699,13.17019 0.0281,0.46652 1.37044,15.73812 1.37044,15.73812 l 0.123,0.97282 c -2.14233,-0.13392 -2.34363,-0.21243 -4.13838,-0.34059 z"
       id="path3519"
       transform="scale(0.26458333)"
       sodipodi:nodetypes="cscssssscccssccc" />
    <path
       style="opacity:0.985;fill:#e0a724;fill-opacity:0.996078;fill-rule:evenodd;stroke-width:0;stroke-linecap:round;stroke-linejoin:round;stroke-miterlimit:4;stroke-dasharray:none;stroke-dashoffset:0;paint-order:markers fill stroke"
       d="m 213.99085,521.29149 c 0.0173,-0.27465 0.61176,-3.7668 0.64718,-3.80222 0.0264,-0.0264 0.23002,-0.0208 0.45241,0.0126 l 0.40434,0.0606 0.3085,0.77094 0.30851,0.77095 -0.43006,0.49208 c -0.46157,0.52813 -1.69529,1.7649 -1.69088,1.69505 z"
       id="path3541"
       transform="scale(0.26458333)" />
    <path
       style="opacity:0.985;fill:#e0a724;fill-opacity:0.996078;fill-rule:evenodd;stroke-width:0;stroke-linecap:round;stroke-linejoin:round;stroke-miterlimit:4;stroke-dasharray:none;stroke-dashoffset:0;paint-order:markers fill stroke"
       d="m 219.00068,518.72643 c -0.0591,-0.9696 -0.13089,-1.93366 -0.15944,-2.14237 -0.0485,-0.35429 -0.0379,-0.37937 0.15913,-0.37806 0.16629,10e-4 0.31986,0.16775 0.72442,0.78611 0.28236,0.43159 0.51339,0.82397 0.51339,0.87195 0,0.0701 -1.0488,2.52493 -1.11231,2.60344 -0.01,0.012 -0.066,-0.77148 -0.12519,-1.74107 z"
       id="path3543"
       transform="scale(0.26458333)" />
    <path
       style="opacity:0.985;fill:#e0a724;fill-opacity:0.996078;fill-rule:evenodd;stroke-width:0;stroke-linecap:round;stroke-linejoin:round;stroke-miterlimit:4;stroke-dasharray:none;stroke-dashoffset:0;paint-order:markers fill stroke"
       d="m 224.00068,517.2537 c -0.16238,-1.09263 -0.31494,-2.08809 -0.33902,-2.21213 -0.0394,-0.20296 0.002,-0.242 0.41357,-0.39 0.25155,-0.0905 0.47025,-0.14968 0.486,-0.13161 0.20313,0.23308 0.9173,1.50081 0.85745,1.52206 -0.0444,0.0158 -0.29397,0.74129 -0.55469,1.6123 -0.26071,0.871 -0.49518,1.58417 -0.52105,1.58482 -0.0259,6.4e-4 -0.17988,-0.8928 -0.34226,-1.98544 z"
       id="path3545"
       transform="scale(0.26458333)" />
    <path
       style="opacity:0.985;fill:#e0a724;fill-opacity:0.996078;fill-rule:evenodd;stroke-width:0;stroke-linecap:round;stroke-linejoin:round;stroke-miterlimit:4;stroke-dasharray:none;stroke-dashoffset:0;paint-order:markers fill stroke"
       d="m 366.6947,511.59958 -0.42734,-1.90954 -6.44124,-0.23332 c -3.54269,-0.12832 -8.0628,-0.23578 -10.04471,-0.23878 -1.9819,-0.003 -3.83215,-0.15021 -4.11165,-0.32711 -0.4336,-0.27443 -0.444,-0.96816 -0.0709,-4.72667 0.59458,-5.9895 1.20477,-9.30124 1.91288,-10.38195 0.3264,-0.49815 1.36518,-1.28088 2.3084,-1.73939 1.6687,-0.81117 2.03035,-0.83748 13.41137,-0.97562 6.43304,-0.0781 11.69643,-0.0348 11.69643,0.0963 0,0.25466 3.48457,14.98898 3.77427,15.95927 0.13158,0.44073 -0.15767,0.6307 -1.21866,0.80036 l -1.39119,0.22246 -0.24553,2.17018 c -0.38227,3.37882 -0.11043,3.19339 -4.68149,3.19339 h -4.04332 z"
       id="path3549"
       transform="scale(0.26458333)" />
    <path
       style="fill:none;stroke:#000000;stroke-width:0;stroke-linecap:butt;stroke-linejoin:miter;stroke-miterlimit:4;stroke-dasharray:none;stroke-opacity:1"
       d="m 125.32273,151.26134 c 4.51209,0.47247 4.51209,0.47247 4.51209,0.47247 l -4.48847,0.0472 z"
       id="path3591" />
  </g>
  <script
     id="mesh_polyfill"
     type="text/javascript">
!function(){const t=&quot;http://www.w3.org/2000/svg&quot;,e=&quot;http://www.w3.org/1999/xlink&quot;,s=&quot;http://www.w3.org/1999/xhtml&quot;,r=2;if(document.createElementNS(t,&quot;meshgradient&quot;).x)return;const n=(t,e,s,r)=&gt;{let n=new x(.5*(e.x+s.x),.5*(e.y+s.y)),o=new x(.5*(t.x+e.x),.5*(t.y+e.y)),i=new x(.5*(s.x+r.x),.5*(s.y+r.y)),a=new x(.5*(n.x+o.x),.5*(n.y+o.y)),h=new x(.5*(n.x+i.x),.5*(n.y+i.y)),l=new x(.5*(a.x+h.x),.5*(a.y+h.y));return[[t,o,a,l],[l,h,i,r]]},o=t=&gt;{let e=t[0].distSquared(t[1]),s=t[2].distSquared(t[3]),r=.25*t[0].distSquared(t[2]),n=.25*t[1].distSquared(t[3]),o=e&gt;s?e:s,i=r&gt;n?r:n;return 18*(o&gt;i?o:i)},i=(t,e)=&gt;Math.sqrt(t.distSquared(e)),a=(t,e)=&gt;t.scale(2/3).add(e.scale(1/3)),h=t=&gt;{let e,s,r,n,o,i,a,h=new g;return t.match(/(\w+\(\s*[^)]+\))+/g).forEach(t=&gt;{let l=t.match(/[\w.-]+/g),d=l.shift();switch(d){case&quot;translate&quot;:2===l.length?e=new g(1,0,0,1,l[0],l[1]):(console.error(&quot;mesh.js: translate does not have 2 arguments!&quot;),e=new g(1,0,0,1,0,0)),h=h.append(e);break;case&quot;scale&quot;:1===l.length?s=new g(l[0],0,0,l[0],0,0):2===l.length?s=new g(l[0],0,0,l[1],0,0):(console.error(&quot;mesh.js: scale does not have 1 or 2 arguments!&quot;),s=new g(1,0,0,1,0,0)),h=h.append(s);break;case&quot;rotate&quot;:if(3===l.length&amp;&amp;(e=new g(1,0,0,1,l[1],l[2]),h=h.append(e)),l[0]){r=l[0]*Math.PI/180;let t=Math.cos(r),e=Math.sin(r);Math.abs(t)&lt;1e-16&amp;&amp;(t=0),Math.abs(e)&lt;1e-16&amp;&amp;(e=0),a=new g(t,e,-e,t,0,0),h=h.append(a)}else console.error(&quot;math.js: No argument to rotate transform!&quot;);3===l.length&amp;&amp;(e=new g(1,0,0,1,-l[1],-l[2]),h=h.append(e));break;case&quot;skewX&quot;:l[0]?(r=l[0]*Math.PI/180,n=Math.tan(r),o=new g(1,0,n,1,0,0),h=h.append(o)):console.error(&quot;math.js: No argument to skewX transform!&quot;);break;case&quot;skewY&quot;:l[0]?(r=l[0]*Math.PI/180,n=Math.tan(r),i=new g(1,n,0,1,0,0),h=h.append(i)):console.error(&quot;math.js: No argument to skewY transform!&quot;);break;case&quot;matrix&quot;:6===l.length?h=h.append(new g(...l)):console.error(&quot;math.js: Incorrect number of arguments for matrix!&quot;);break;default:console.error(&quot;mesh.js: Unhandled transform type: &quot;+d)}}),h},l=t=&gt;{let e=[],s=t.split(/[ ,]+/);for(let t=0,r=s.length-1;t&lt;r;t+=2)e.push(new x(parseFloat(s[t]),parseFloat(s[t+1])));return e},d=(t,e)=&gt;{for(let s in e)t.setAttribute(s,e[s])},c=(t,e,s,r,n)=&gt;{let o,i,a=[0,0,0,0];for(let h=0;h&lt;3;++h)e[h]&lt;t[h]&amp;&amp;e[h]&lt;s[h]||t[h]&lt;e[h]&amp;&amp;s[h]&lt;e[h]?a[h]=0:(a[h]=.5*((e[h]-t[h])/r+(s[h]-e[h])/n),o=Math.abs(3*(e[h]-t[h])/r),i=Math.abs(3*(s[h]-e[h])/n),a[h]&gt;o?a[h]=o:a[h]&gt;i&amp;&amp;(a[h]=i));return a},u=[[1,0,0,0,0,0,0,0,0,0,0,0,0,0,0,0],[0,0,0,0,1,0,0,0,0,0,0,0,0,0,0,0],[-3,3,0,0,-2,-1,0,0,0,0,0,0,0,0,0,0],[2,-2,0,0,1,1,0,0,0,0,0,0,0,0,0,0],[0,0,0,0,0,0,0,0,1,0,0,0,0,0,0,0],[0,0,0,0,0,0,0,0,0,0,0,0,1,0,0,0],[0,0,0,0,0,0,0,0,-3,3,0,0,-2,-1,0,0],[0,0,0,0,0,0,0,0,2,-2,0,0,1,1,0,0],[-3,0,3,0,0,0,0,0,-2,0,-1,0,0,0,0,0],[0,0,0,0,-3,0,3,0,0,0,0,0,-2,0,-1,0],[9,-9,-9,9,6,3,-6,-3,6,-6,3,-3,4,2,2,1],[-6,6,6,-6,-3,-3,3,3,-4,4,-2,2,-2,-2,-1,-1],[2,0,-2,0,0,0,0,0,1,0,1,0,0,0,0,0],[0,0,0,0,2,0,-2,0,0,0,0,0,1,0,1,0],[-6,6,6,-6,-4,-2,4,2,-3,3,-3,3,-2,-1,-2,-1],[4,-4,-4,4,2,2,-2,-2,2,-2,2,-2,1,1,1,1]],f=t=&gt;{let e=[];for(let s=0;s&lt;16;++s){e[s]=0;for(let r=0;r&lt;16;++r)e[s]+=u[s][r]*t[r]}return e},p=(t,e,s)=&gt;{const r=e*e,n=s*s,o=e*e*e,i=s*s*s;return t[0]+t[1]*e+t[2]*r+t[3]*o+t[4]*s+t[5]*s*e+t[6]*s*r+t[7]*s*o+t[8]*n+t[9]*n*e+t[10]*n*r+t[11]*n*o+t[12]*i+t[13]*i*e+t[14]*i*r+t[15]*i*o},y=t=&gt;{let e=[],s=[],r=[];for(let s=0;s&lt;4;++s)e[s]=[],e[s][0]=n(t[0][s],t[1][s],t[2][s],t[3][s]),e[s][1]=[],e[s][1].push(...n(...e[s][0][0])),e[s][1].push(...n(...e[s][0][1])),e[s][2]=[],e[s][2].push(...n(...e[s][1][0])),e[s][2].push(...n(...e[s][1][1])),e[s][2].push(...n(...e[s][1][2])),e[s][2].push(...n(...e[s][1][3]));for(let t=0;t&lt;8;++t){s[t]=[];for(let r=0;r&lt;4;++r)s[t][r]=[],s[t][r][0]=n(e[0][2][t][r],e[1][2][t][r],e[2][2][t][r],e[3][2][t][r]),s[t][r][1]=[],s[t][r][1].push(...n(...s[t][r][0][0])),s[t][r][1].push(...n(...s[t][r][0][1])),s[t][r][2]=[],s[t][r][2].push(...n(...s[t][r][1][0])),s[t][r][2].push(...n(...s[t][r][1][1])),s[t][r][2].push(...n(...s[t][r][1][2])),s[t][r][2].push(...n(...s[t][r][1][3]))}for(let t=0;t&lt;8;++t){r[t]=[];for(let e=0;e&lt;8;++e)r[t][e]=[],r[t][e][0]=s[t][0][2][e],r[t][e][1]=s[t][1][2][e],r[t][e][2]=s[t][2][2][e],r[t][e][3]=s[t][3][2][e]}return r};class x{constructor(t,e){this.x=t||0,this.y=e||0}toString(){return`(x=${this.x}, y=${this.y})`}clone(){return new x(this.x,this.y)}add(t){return new x(this.x+t.x,this.y+t.y)}scale(t){return void 0===t.x?new x(this.x*t,this.y*t):new x(this.x*t.x,this.y*t.y)}distSquared(t){let e=this.x-t.x,s=this.y-t.y;return e*e+s*s}transform(t){let e=this.x*t.a+this.y*t.c+t.e,s=this.x*t.b+this.y*t.d+t.f;return new x(e,s)}}class g{constructor(t,e,s,r,n,o){void 0===t?(this.a=1,this.b=0,this.c=0,this.d=1,this.e=0,this.f=0):(this.a=t,this.b=e,this.c=s,this.d=r,this.e=n,this.f=o)}toString(){return`affine: ${this.a} ${this.c} ${this.e} \n       ${this.b} ${this.d} ${this.f}`}append(t){t instanceof g||console.error(&quot;mesh.js: argument to Affine.append is not affine!&quot;);let e=this.a*t.a+this.c*t.b,s=this.b*t.a+this.d*t.b,r=this.a*t.c+this.c*t.d,n=this.b*t.c+this.d*t.d,o=this.a*t.e+this.c*t.f+this.e,i=this.b*t.e+this.d*t.f+this.f;return new g(e,s,r,n,o,i)}}class w{constructor(t,e){this.nodes=t,this.colors=e}paintCurve(t,e){if(o(this.nodes)&gt;r){const s=n(...this.nodes);let r=[[],[]],o=[[],[]];for(let t=0;t&lt;4;++t)r[0][t]=this.colors[0][t],r[1][t]=(this.colors[0][t]+this.colors[1][t])/2,o[0][t]=r[1][t],o[1][t]=this.colors[1][t];let i=new w(s[0],r),a=new w(s[1],o);i.paintCurve(t,e),a.paintCurve(t,e)}else{let s=Math.round(this.nodes[0].x);if(s&gt;=0&amp;&amp;s&lt;e){let r=4*(~~this.nodes[0].y*e+s);t[r]=Math.round(this.colors[0][0]),t[r+1]=Math.round(this.colors[0][1]),t[r+2]=Math.round(this.colors[0][2]),t[r+3]=Math.round(this.colors[0][3])}}}}class m{constructor(t,e){this.nodes=t,this.colors=e}split(){let t=[[],[],[],[]],e=[[],[],[],[]],s=[[[],[]],[[],[]]],r=[[[],[]],[[],[]]];for(let s=0;s&lt;4;++s){const r=n(this.nodes[0][s],this.nodes[1][s],this.nodes[2][s],this.nodes[3][s]);t[0][s]=r[0][0],t[1][s]=r[0][1],t[2][s]=r[0][2],t[3][s]=r[0][3],e[0][s]=r[1][0],e[1][s]=r[1][1],e[2][s]=r[1][2],e[3][s]=r[1][3]}for(let t=0;t&lt;4;++t)s[0][0][t]=this.colors[0][0][t],s[0][1][t]=this.colors[0][1][t],s[1][0][t]=(this.colors[0][0][t]+this.colors[1][0][t])/2,s[1][1][t]=(this.colors[0][1][t]+this.colors[1][1][t])/2,r[0][0][t]=s[1][0][t],r[0][1][t]=s[1][1][t],r[1][0][t]=this.colors[1][0][t],r[1][1][t]=this.colors[1][1][t];return[new m(t,s),new m(e,r)]}paint(t,e){let s,n=!1;for(let t=0;t&lt;4;++t)if((s=o([this.nodes[0][t],this.nodes[1][t],this.nodes[2][t],this.nodes[3][t]]))&gt;r){n=!0;break}if(n){let s=this.split();s[0].paint(t,e),s[1].paint(t,e)}else{new w([...this.nodes[0]],[...this.colors[0]]).paintCurve(t,e)}}}class b{constructor(t){this.readMesh(t),this.type=t.getAttribute(&quot;type&quot;)||&quot;bilinear&quot;}readMesh(t){let e=[[]],s=[[]],r=Number(t.getAttribute(&quot;x&quot;)),n=Number(t.getAttribute(&quot;y&quot;));e[0][0]=new x(r,n);let o=t.children;for(let t=0,r=o.length;t&lt;r;++t){e[3*t+1]=[],e[3*t+2]=[],e[3*t+3]=[],s[t+1]=[];let r=o[t].children;for(let n=0,o=r.length;n&lt;o;++n){let o=r[n].children;for(let r=0,i=o.length;r&lt;i;++r){let i=r;0!==t&amp;&amp;++i;let h,d=o[r].getAttribute(&quot;path&quot;),c=&quot;l&quot;;null!=d&amp;&amp;(c=(h=d.match(/\s*([lLcC])\s*(.*)/))[1]);let u=l(h[2]);switch(c){case&quot;l&quot;:0===i?(e[3*t][3*n+3]=u[0].add(e[3*t][3*n]),e[3*t][3*n+1]=a(e[3*t][3*n],e[3*t][3*n+3]),e[3*t][3*n+2]=a(e[3*t][3*n+3],e[3*t][3*n])):1===i?(e[3*t+3][3*n+3]=u[0].add(e[3*t][3*n+3]),e[3*t+1][3*n+3]=a(e[3*t][3*n+3],e[3*t+3][3*n+3]),e[3*t+2][3*n+3]=a(e[3*t+3][3*n+3],e[3*t][3*n+3])):2===i?(0===n&amp;&amp;(e[3*t+3][3*n+0]=u[0].add(e[3*t+3][3*n+3])),e[3*t+3][3*n+1]=a(e[3*t+3][3*n],e[3*t+3][3*n+3]),e[3*t+3][3*n+2]=a(e[3*t+3][3*n+3],e[3*t+3][3*n])):(e[3*t+1][3*n]=a(e[3*t][3*n],e[3*t+3][3*n]),e[3*t+2][3*n]=a(e[3*t+3][3*n],e[3*t][3*n]));break;case&quot;L&quot;:0===i?(e[3*t][3*n+3]=u[0],e[3*t][3*n+1]=a(e[3*t][3*n],e[3*t][3*n+3]),e[3*t][3*n+2]=a(e[3*t][3*n+3],e[3*t][3*n])):1===i?(e[3*t+3][3*n+3]=u[0],e[3*t+1][3*n+3]=a(e[3*t][3*n+3],e[3*t+3][3*n+3]),e[3*t+2][3*n+3]=a(e[3*t+3][3*n+3],e[3*t][3*n+3])):2===i?(0===n&amp;&amp;(e[3*t+3][3*n+0]=u[0]),e[3*t+3][3*n+1]=a(e[3*t+3][3*n],e[3*t+3][3*n+3]),e[3*t+3][3*n+2]=a(e[3*t+3][3*n+3],e[3*t+3][3*n])):(e[3*t+1][3*n]=a(e[3*t][3*n],e[3*t+3][3*n]),e[3*t+2][3*n]=a(e[3*t+3][3*n],e[3*t][3*n]));break;case&quot;c&quot;:0===i?(e[3*t][3*n+1]=u[0].add(e[3*t][3*n]),e[3*t][3*n+2]=u[1].add(e[3*t][3*n]),e[3*t][3*n+3]=u[2].add(e[3*t][3*n])):1===i?(e[3*t+1][3*n+3]=u[0].add(e[3*t][3*n+3]),e[3*t+2][3*n+3]=u[1].add(e[3*t][3*n+3]),e[3*t+3][3*n+3]=u[2].add(e[3*t][3*n+3])):2===i?(e[3*t+3][3*n+2]=u[0].add(e[3*t+3][3*n+3]),e[3*t+3][3*n+1]=u[1].add(e[3*t+3][3*n+3]),0===n&amp;&amp;(e[3*t+3][3*n+0]=u[2].add(e[3*t+3][3*n+3]))):(e[3*t+2][3*n]=u[0].add(e[3*t+3][3*n]),e[3*t+1][3*n]=u[1].add(e[3*t+3][3*n]));break;case&quot;C&quot;:0===i?(e[3*t][3*n+1]=u[0],e[3*t][3*n+2]=u[1],e[3*t][3*n+3]=u[2]):1===i?(e[3*t+1][3*n+3]=u[0],e[3*t+2][3*n+3]=u[1],e[3*t+3][3*n+3]=u[2]):2===i?(e[3*t+3][3*n+2]=u[0],e[3*t+3][3*n+1]=u[1],0===n&amp;&amp;(e[3*t+3][3*n+0]=u[2])):(e[3*t+2][3*n]=u[0],e[3*t+1][3*n]=u[1]);break;default:console.error(&quot;mesh.js: &quot;+c+&quot; invalid path type.&quot;)}if(0===t&amp;&amp;0===n||r&gt;0){let e=window.getComputedStyle(o[r]).stopColor.match(/^rgb\s*\(\s*(\d+)\s*,\s*(\d+)\s*,\s*(\d+)\s*\)$/i),a=window.getComputedStyle(o[r]).stopOpacity,h=255;a&amp;&amp;(h=Math.floor(255*a)),e&amp;&amp;(0===i?(s[t][n]=[],s[t][n][0]=Math.floor(e[1]),s[t][n][1]=Math.floor(e[2]),s[t][n][2]=Math.floor(e[3]),s[t][n][3]=h):1===i?(s[t][n+1]=[],s[t][n+1][0]=Math.floor(e[1]),s[t][n+1][1]=Math.floor(e[2]),s[t][n+1][2]=Math.floor(e[3]),s[t][n+1][3]=h):2===i?(s[t+1][n+1]=[],s[t+1][n+1][0]=Math.floor(e[1]),s[t+1][n+1][1]=Math.floor(e[2]),s[t+1][n+1][2]=Math.floor(e[3]),s[t+1][n+1][3]=h):3===i&amp;&amp;(s[t+1][n]=[],s[t+1][n][0]=Math.floor(e[1]),s[t+1][n][1]=Math.floor(e[2]),s[t+1][n][2]=Math.floor(e[3]),s[t+1][n][3]=h))}}e[3*t+1][3*n+1]=new x,e[3*t+1][3*n+2]=new x,e[3*t+2][3*n+1]=new x,e[3*t+2][3*n+2]=new x,e[3*t+1][3*n+1].x=(-4*e[3*t][3*n].x+6*(e[3*t][3*n+1].x+e[3*t+1][3*n].x)+-2*(e[3*t][3*n+3].x+e[3*t+3][3*n].x)+3*(e[3*t+3][3*n+1].x+e[3*t+1][3*n+3].x)+-1*e[3*t+3][3*n+3].x)/9,e[3*t+1][3*n+2].x=(-4*e[3*t][3*n+3].x+6*(e[3*t][3*n+2].x+e[3*t+1][3*n+3].x)+-2*(e[3*t][3*n].x+e[3*t+3][3*n+3].x)+3*(e[3*t+3][3*n+2].x+e[3*t+1][3*n].x)+-1*e[3*t+3][3*n].x)/9,e[3*t+2][3*n+1].x=(-4*e[3*t+3][3*n].x+6*(e[3*t+3][3*n+1].x+e[3*t+2][3*n].x)+-2*(e[3*t+3][3*n+3].x+e[3*t][3*n].x)+3*(e[3*t][3*n+1].x+e[3*t+2][3*n+3].x)+-1*e[3*t][3*n+3].x)/9,e[3*t+2][3*n+2].x=(-4*e[3*t+3][3*n+3].x+6*(e[3*t+3][3*n+2].x+e[3*t+2][3*n+3].x)+-2*(e[3*t+3][3*n].x+e[3*t][3*n+3].x)+3*(e[3*t][3*n+2].x+e[3*t+2][3*n].x)+-1*e[3*t][3*n].x)/9,e[3*t+1][3*n+1].y=(-4*e[3*t][3*n].y+6*(e[3*t][3*n+1].y+e[3*t+1][3*n].y)+-2*(e[3*t][3*n+3].y+e[3*t+3][3*n].y)+3*(e[3*t+3][3*n+1].y+e[3*t+1][3*n+3].y)+-1*e[3*t+3][3*n+3].y)/9,e[3*t+1][3*n+2].y=(-4*e[3*t][3*n+3].y+6*(e[3*t][3*n+2].y+e[3*t+1][3*n+3].y)+-2*(e[3*t][3*n].y+e[3*t+3][3*n+3].y)+3*(e[3*t+3][3*n+2].y+e[3*t+1][3*n].y)+-1*e[3*t+3][3*n].y)/9,e[3*t+2][3*n+1].y=(-4*e[3*t+3][3*n].y+6*(e[3*t+3][3*n+1].y+e[3*t+2][3*n].y)+-2*(e[3*t+3][3*n+3].y+e[3*t][3*n].y)+3*(e[3*t][3*n+1].y+e[3*t+2][3*n+3].y)+-1*e[3*t][3*n+3].y)/9,e[3*t+2][3*n+2].y=(-4*e[3*t+3][3*n+3].y+6*(e[3*t+3][3*n+2].y+e[3*t+2][3*n+3].y)+-2*(e[3*t+3][3*n].y+e[3*t][3*n+3].y)+3*(e[3*t][3*n+2].y+e[3*t+2][3*n].y)+-1*e[3*t][3*n].y)/9}}this.nodes=e,this.colors=s}paintMesh(t,e){let s=(this.nodes.length-1)/3,r=(this.nodes[0].length-1)/3;if(&quot;bilinear&quot;===this.type||s&lt;2||r&lt;2){let n;for(let o=0;o&lt;s;++o)for(let s=0;s&lt;r;++s){let r=[];for(let t=3*o,e=3*o+4;t&lt;e;++t)r.push(this.nodes[t].slice(3*s,3*s+4));let i=[];i.push(this.colors[o].slice(s,s+2)),i.push(this.colors[o+1].slice(s,s+2)),(n=new m(r,i)).paint(t,e)}}else{let n,o,a,h,l,d,u;const x=s,g=r;s++,r++;let w=new Array(s);for(let t=0;t&lt;s;++t){w[t]=new Array(r);for(let e=0;e&lt;r;++e)w[t][e]=[],w[t][e][0]=this.nodes[3*t][3*e],w[t][e][1]=this.colors[t][e]}for(let t=0;t&lt;s;++t)for(let e=0;e&lt;r;++e)0!==t&amp;&amp;t!==x&amp;&amp;(n=i(w[t-1][e][0],w[t][e][0]),o=i(w[t+1][e][0],w[t][e][0]),w[t][e][2]=c(w[t-1][e][1],w[t][e][1],w[t+1][e][1],n,o)),0!==e&amp;&amp;e!==g&amp;&amp;(n=i(w[t][e-1][0],w[t][e][0]),o=i(w[t][e+1][0],w[t][e][0]),w[t][e][3]=c(w[t][e-1][1],w[t][e][1],w[t][e+1][1],n,o));for(let t=0;t&lt;r;++t){w[0][t][2]=[],w[x][t][2]=[];for(let e=0;e&lt;4;++e)n=i(w[1][t][0],w[0][t][0]),o=i(w[x][t][0],w[x-1][t][0]),w[0][t][2][e]=n&gt;0?2*(w[1][t][1][e]-w[0][t][1][e])/n-w[1][t][2][e]:0,w[x][t][2][e]=o&gt;0?2*(w[x][t][1][e]-w[x-1][t][1][e])/o-w[x-1][t][2][e]:0}for(let t=0;t&lt;s;++t){w[t][0][3]=[],w[t][g][3]=[];for(let e=0;e&lt;4;++e)n=i(w[t][1][0],w[t][0][0]),o=i(w[t][g][0],w[t][g-1][0]),w[t][0][3][e]=n&gt;0?2*(w[t][1][1][e]-w[t][0][1][e])/n-w[t][1][3][e]:0,w[t][g][3][e]=o&gt;0?2*(w[t][g][1][e]-w[t][g-1][1][e])/o-w[t][g-1][3][e]:0}for(let s=0;s&lt;x;++s)for(let r=0;r&lt;g;++r){let n=i(w[s][r][0],w[s+1][r][0]),o=i(w[s][r+1][0],w[s+1][r+1][0]),c=i(w[s][r][0],w[s][r+1][0]),x=i(w[s+1][r][0],w[s+1][r+1][0]),g=[[],[],[],[]];for(let t=0;t&lt;4;++t){(d=[])[0]=w[s][r][1][t],d[1]=w[s+1][r][1][t],d[2]=w[s][r+1][1][t],d[3]=w[s+1][r+1][1][t],d[4]=w[s][r][2][t]*n,d[5]=w[s+1][r][2][t]*n,d[6]=w[s][r+1][2][t]*o,d[7]=w[s+1][r+1][2][t]*o,d[8]=w[s][r][3][t]*c,d[9]=w[s+1][r][3][t]*x,d[10]=w[s][r+1][3][t]*c,d[11]=w[s+1][r+1][3][t]*x,d[12]=0,d[13]=0,d[14]=0,d[15]=0,u=f(d);for(let e=0;e&lt;9;++e){g[t][e]=[];for(let s=0;s&lt;9;++s)g[t][e][s]=p(u,e/8,s/8),g[t][e][s]&gt;255?g[t][e][s]=255:g[t][e][s]&lt;0&amp;&amp;(g[t][e][s]=0)}}h=[];for(let t=3*s,e=3*s+4;t&lt;e;++t)h.push(this.nodes[t].slice(3*r,3*r+4));l=y(h);for(let s=0;s&lt;8;++s)for(let r=0;r&lt;8;++r)(a=new m(l[s][r],[[[g[0][s][r],g[1][s][r],g[2][s][r],g[3][s][r]],[g[0][s][r+1],g[1][s][r+1],g[2][s][r+1],g[3][s][r+1]]],[[g[0][s+1][r],g[1][s+1][r],g[2][s+1][r],g[3][s+1][r]],[g[0][s+1][r+1],g[1][s+1][r+1],g[2][s+1][r+1],g[3][s+1][r+1]]]])).paint(t,e)}}}transform(t){if(t instanceof x)for(let e=0,s=this.nodes.length;e&lt;s;++e)for(let s=0,r=this.nodes[0].length;s&lt;r;++s)this.nodes[e][s]=this.nodes[e][s].add(t);else if(t instanceof g)for(let e=0,s=this.nodes.length;e&lt;s;++e)for(let s=0,r=this.nodes[0].length;s&lt;r;++s)this.nodes[e][s]=this.nodes[e][s].transform(t)}scale(t){for(let e=0,s=this.nodes.length;e&lt;s;++e)for(let s=0,r=this.nodes[0].length;s&lt;r;++s)this.nodes[e][s]=this.nodes[e][s].scale(t)}}document.querySelectorAll(&quot;rect,circle,ellipse,path,text&quot;).forEach((r,n)=&gt;{let o=r.getAttribute(&quot;id&quot;);o||(o=&quot;patchjs_shape&quot;+n,r.setAttribute(&quot;id&quot;,o));const i=r.style.fill.match(/^url\(\s*&quot;?\s*#([^\s&quot;]+)&quot;?\s*\)/),a=r.style.stroke.match(/^url\(\s*&quot;?\s*#([^\s&quot;]+)&quot;?\s*\)/);if(i&amp;&amp;i[1]){const a=document.getElementById(i[1]);if(a&amp;&amp;&quot;meshgradient&quot;===a.nodeName){const i=r.getBBox();let l=document.createElementNS(s,&quot;canvas&quot;);d(l,{width:i.width,height:i.height});const c=l.getContext(&quot;2d&quot;);let u=c.createImageData(i.width,i.height);const f=new b(a);&quot;objectBoundingBox&quot;===a.getAttribute(&quot;gradientUnits&quot;)&amp;&amp;f.scale(new x(i.width,i.height));const p=a.getAttribute(&quot;gradientTransform&quot;);null!=p&amp;&amp;f.transform(h(p)),&quot;userSpaceOnUse&quot;===a.getAttribute(&quot;gradientUnits&quot;)&amp;&amp;f.transform(new x(-i.x,-i.y)),f.paintMesh(u.data,l.width),c.putImageData(u,0,0);const y=document.createElementNS(t,&quot;image&quot;);d(y,{width:i.width,height:i.height,x:i.x,y:i.y});let g=l.toDataURL();y.setAttributeNS(e,&quot;xlink:href&quot;,g),r.parentNode.insertBefore(y,r),r.style.fill=&quot;none&quot;;const w=document.createElementNS(t,&quot;use&quot;);w.setAttributeNS(e,&quot;xlink:href&quot;,&quot;#&quot;+o);const m=&quot;patchjs_clip&quot;+n,M=document.createElementNS(t,&quot;clipPath&quot;);M.setAttribute(&quot;id&quot;,m),M.appendChild(w),r.parentElement.insertBefore(M,r),y.setAttribute(&quot;clip-path&quot;,&quot;url(#&quot;+m+&quot;)&quot;),u=null,l=null,g=null}}if(a&amp;&amp;a[1]){const o=document.getElementById(a[1]);if(o&amp;&amp;&quot;meshgradient&quot;===o.nodeName){const i=parseFloat(r.style.strokeWidth.slice(0,-2))*(parseFloat(r.style.strokeMiterlimit)||parseFloat(r.getAttribute(&quot;stroke-miterlimit&quot;))||1),a=r.getBBox(),l=Math.trunc(a.width+i),c=Math.trunc(a.height+i),u=Math.trunc(a.x-i/2),f=Math.trunc(a.y-i/2);let p=document.createElementNS(s,&quot;canvas&quot;);d(p,{width:l,height:c});const y=p.getContext(&quot;2d&quot;);let g=y.createImageData(l,c);const w=new b(o);&quot;objectBoundingBox&quot;===o.getAttribute(&quot;gradientUnits&quot;)&amp;&amp;w.scale(new x(l,c));const m=o.getAttribute(&quot;gradientTransform&quot;);null!=m&amp;&amp;w.transform(h(m)),&quot;userSpaceOnUse&quot;===o.getAttribute(&quot;gradientUnits&quot;)&amp;&amp;w.transform(new x(-u,-f)),w.paintMesh(g.data,p.width),y.putImageData(g,0,0);const M=document.createElementNS(t,&quot;image&quot;);d(M,{width:l,height:c,x:0,y:0});let S=p.toDataURL();M.setAttributeNS(e,&quot;xlink:href&quot;,S);const k=&quot;pattern_clip&quot;+n,A=document.createElementNS(t,&quot;pattern&quot;);d(A,{id:k,patternUnits:&quot;userSpaceOnUse&quot;,width:l,height:c,x:u,y:f}),A.appendChild(M),o.parentNode.appendChild(A),r.style.stroke=&quot;url(#&quot;+k+&quot;)&quot;,g=null,p=null,S=null}}})}();
</script>
</svg>
