<svg version="1.1" id="Layer_1" xmlns="http://www.w3.org/2000/svg" x="0" y="0" viewBox="0 0 512 512" xml:space="preserve"><style>.st0{fill:#010101}</style><path class="st0" d="M368.8 176H143.2L256 266.6zM136 176v149.7l87.4-65zm120 116.2L235.1 272 136 336h240l-99.1-64z"/><path class="st0" d="M256 6C117.9 6 6 117.9 6 256s111.9 250 250 250 250-111.9 250-250S394.1 6 256 6zm0 470c-121.5 0-220-98.5-220-220S134.5 36 256 36s220 98.5 220 220-98.5 220-220 220z"/><path class="st0" d="M376 325.7V176l-87.4 84.6z"/></svg>